<svg xmlns="http://www.w3.org/2000/svg" fill="none" viewBox="0 0 170 52" height="52" width="170">
<g clip-path="url(#clip0_1378_2986)">
<path fill="#1A1A18" d="M37.0798 42.819C36.7524 42.7421 36.4158 42.7115 36.0798 42.7281C34.6998 42.7281 33.9398 43.6851 33.9398 45.2751V48.7131H30.9999V40.563H33.6699V42.07H33.6898C33.882 41.5613 34.228 41.1251 34.6797 40.8222C35.1314 40.5193 35.6662 40.3647 36.2098 40.3801C36.5449 40.3873 36.8791 40.418 37.2098 40.472L37.0698 42.819H37.0798ZM37.5698 44.642C37.5698 41.937 39.7099 40.3801 42.5199 40.3801C45.3299 40.3801 47.4598 41.936 47.4598 44.642C47.4598 47.348 45.3099 48.8951 42.5199 48.8951C39.7299 48.8951 37.5698 47.339 37.5698 44.642ZM44.4099 44.642C44.4099 43.418 43.8499 42.3531 42.5099 42.3531C41.1699 42.3531 40.6099 43.435 40.6099 44.642C40.6099 45.849 41.1599 46.923 42.5099 46.923C43.8599 46.923 44.4099 45.841 44.4099 44.642ZM48.8699 40.563H51.5399V42.07H51.5599C51.8597 41.5203 52.3114 41.0686 52.8612 40.7689C53.411 40.4692 54.0354 40.3342 54.6599 40.3801C55.2091 40.3371 55.7582 40.4632 56.2336 40.7413C56.7091 41.0194 57.0881 41.4363 57.3198 41.9361C57.6426 41.4346 58.0915 41.0269 58.6216 40.7538C59.1517 40.4807 59.7442 40.3518 60.3398 40.3801C62.7898 40.3801 63.3499 41.712 63.3499 43.909V48.709H60.4099V44.3391C60.4099 43.4151 60.0699 42.724 59.2299 42.724C58.1899 42.724 57.5698 43.524 57.5698 45.271V48.709H54.6299V44.3391C54.6299 43.4151 54.2798 42.724 53.4598 42.724C52.4198 42.724 51.7899 43.524 51.7899 45.271V48.709H48.8699V40.563ZM65.1299 40.563H67.8398V42.028H67.8599C68.1802 41.4829 68.6472 41.0387 69.2076 40.7459C69.7681 40.4532 70.3995 40.3236 71.0299 40.3721C71.5415 40.3988 72.0427 40.5272 72.5042 40.7496C72.9656 40.972 73.3782 41.284 73.7179 41.6674C74.0576 42.0509 74.3176 42.4981 74.4828 42.9831C74.6479 43.468 74.715 43.981 74.6799 44.4921C74.6799 46.9061 73.3199 48.903 70.7999 48.903C70.2722 48.9401 69.7442 48.8363 69.2698 48.6022C68.7954 48.3682 68.3916 48.0123 68.0999 47.571H68.0698V52H65.1399V40.563H65.1299ZM69.8499 42.5191C69.3503 42.6008 68.896 42.8575 68.5682 43.2433C68.2404 43.629 68.0604 44.1188 68.0604 44.625C68.0604 45.1313 68.2404 45.621 68.5682 46.0068C68.896 46.3926 69.3503 46.6493 69.8499 46.731C70.9599 46.731 71.6299 45.84 71.6299 44.542C71.6559 44.2903 71.6295 44.0359 71.5525 43.7949C71.4755 43.5538 71.3494 43.3313 71.1823 43.1413C71.0151 42.9513 70.8103 42.798 70.5811 42.6909C70.3518 42.5838 70.1028 42.5253 69.8499 42.5191ZM75.3298 40.563H77.0599V38.7401L79.9498 37.8741V40.5741H82.0099V42.5471H79.9498V45.5471C79.9498 46.5371 80.1999 47.037 81.1299 47.037C81.4353 47.021 81.7393 46.9849 82.0399 46.9291L82.1299 48.752C81.5174 48.846 80.8994 48.8987 80.2799 48.91C77.6499 48.91 77.0199 47.803 77.0199 45.855V42.5271H75.3298V40.563ZM82.9199 44.642C82.9199 41.937 85.0699 40.3801 87.8599 40.3801C90.6499 40.3801 92.8099 41.936 92.8099 44.642C92.8099 47.348 90.6699 48.8951 87.8599 48.8951C85.0499 48.8951 82.9199 47.339 82.9199 44.642ZM89.7799 44.642C89.7799 43.418 89.2299 42.3531 87.8799 42.3531C86.5299 42.3531 85.9799 43.435 85.9799 44.642C85.9799 45.849 86.5299 46.923 87.8799 46.923C89.2299 46.923 89.7799 45.841 89.7799 44.642ZM94.2299 40.563H96.8899V42.07H96.9199C97.2179 41.5187 97.6693 41.0656 98.2195 40.7657C98.7697 40.4657 99.3951 40.3318 100.02 40.3801C100.456 40.3433 100.895 40.4024 101.306 40.5532C101.716 40.7041 102.089 40.9429 102.398 41.2531C102.707 41.5632 102.944 41.9371 103.093 42.3486C103.242 42.7601 103.299 43.1992 103.26 43.635V48.7121H100.34V44.766C100.34 43.234 99.7899 42.71 98.9999 42.71C97.7899 42.71 97.1699 43.51 97.1699 45.257V48.695H94.2198V40.563H94.2299ZM29.7699 48.454C28.6669 48.746 27.5308 48.8942 26.3899 48.8951C23.3599 48.8951 19.8398 47.43 19.8398 43.295C19.8398 39.495 22.6099 37.6021 26.3599 37.6021C27.5068 37.6316 28.6442 37.8194 29.7399 38.16L29.4899 40.516C28.5845 40.0121 27.5661 39.7458 26.5299 39.7421C26.0586 39.7175 25.5873 39.7917 25.1464 39.96C24.7054 40.1282 24.3044 40.3868 23.9692 40.719C23.634 41.0513 23.372 41.45 23.2 41.8895C23.0279 42.3289 22.9494 42.7995 22.9698 43.271C22.9698 45.418 24.5599 46.709 26.7599 46.709C27.7317 46.689 28.6927 46.5001 29.5999 46.1511L29.7699 48.44V48.454Z" clip-rule="evenodd" fill-rule="evenodd"></path>
<path fill="#1A1A18" d="M13.64 48.3503L12.95 46.4503H9.12L8.43005 48.3503H7.22998L10.4 39.8853H11.67L14.84 48.3503H13.64ZM9.51001 45.3993H12.5601L11.03 41.2273L9.51001 45.3993Z"></path>
<path fill="#1A1A18" d="M166.78 42.3003H167.91L165.44 48.7223C165.229 49.3364 164.848 49.8776 164.34 50.2823C163.888 50.6431 163.316 50.8164 162.74 50.7663V49.7863C163.49 49.8423 164.03 49.4313 164.38 48.5523L164.49 48.3223L161.84 42.2993H162.97L165.04 47.0403L166.78 42.3003Z"></path>
<path fill="#1A1A18" d="M159.49 43.3193C159.65 42.9594 159.918 42.658 160.256 42.4565C160.595 42.2551 160.987 42.1635 161.38 42.1943V43.2943C160.901 43.2596 160.426 43.4063 160.05 43.7053C159.853 43.8861 159.699 44.1099 159.602 44.3594C159.505 44.609 159.467 44.8776 159.49 45.1443V48.3443H158.43V42.3003H159.49V43.3193Z"></path>
<path fill="#1A1A18" d="M155.78 42.3001H156.83V48.3471H155.78V47.3071C155.536 47.6921 155.195 48.0058 154.791 48.2166C154.387 48.4273 153.935 48.5275 153.48 48.5071C153.074 48.513 152.672 48.4343 152.298 48.2761C151.924 48.1179 151.588 47.8836 151.31 47.5881C151.017 47.2902 150.786 46.9366 150.631 46.5481C150.477 46.1596 150.401 45.7442 150.41 45.3261C150.401 44.91 150.476 44.4963 150.63 44.1098C150.785 43.7234 151.016 43.3721 151.31 43.0771C151.586 42.7784 151.922 42.5412 152.296 42.3808C152.67 42.2204 153.073 42.1404 153.48 42.1461C153.935 42.1258 154.387 42.226 154.791 42.4367C155.195 42.6475 155.536 42.9612 155.78 43.3461V42.3001ZM153.62 47.4881C153.908 47.4943 154.194 47.4429 154.463 47.3369C154.731 47.2309 154.975 47.0725 155.181 46.8709C155.387 46.6693 155.55 46.4286 155.662 46.1629C155.774 45.8972 155.831 45.6119 155.831 45.3236C155.831 45.0354 155.774 44.7501 155.662 44.4844C155.55 44.2187 155.387 43.978 155.181 43.7764C154.975 43.5748 154.731 43.4163 154.463 43.3104C154.194 43.2044 153.908 43.153 153.62 43.1591C153.336 43.1568 153.054 43.2114 152.791 43.3196C152.528 43.4277 152.289 43.5874 152.089 43.7891C151.889 43.9908 151.731 44.2305 151.625 44.4941C151.518 44.7577 151.466 45.0399 151.47 45.3241C151.463 45.6091 151.514 45.8926 151.619 46.1574C151.724 46.4223 151.882 46.6631 152.083 46.8654C152.284 47.0677 152.523 47.2272 152.788 47.3344C153.052 47.4416 153.335 47.4932 153.62 47.4881Z"></path>
<path fill="#1A1A18" d="M148.62 41.2001C148.479 41.2043 148.34 41.1658 148.222 41.0898C148.103 41.0138 148.01 40.9039 147.955 40.7742C147.9 40.6446 147.885 40.5014 147.913 40.3633C147.941 40.2252 148.009 40.0986 148.11 40.0001C148.174 39.9285 148.252 39.8719 148.34 39.8342C148.429 39.7965 148.524 39.7788 148.62 39.7821C148.712 39.7809 148.804 39.7997 148.889 39.8373C148.973 39.875 149.049 39.9305 149.11 40.0001C149.176 40.0645 149.229 40.1416 149.265 40.2268C149.302 40.312 149.32 40.4036 149.32 40.4961C149.32 40.5887 149.302 40.6803 149.265 40.7655C149.229 40.8507 149.176 40.9278 149.11 40.9921C149.047 41.0591 148.971 41.1122 148.887 41.148C148.802 41.1838 148.711 41.2016 148.62 41.2001ZM148.08 48.3471V42.3001H149.14V48.3471H148.08Z"></path>
<path fill="#1A1A18" d="M145.42 39.8862H146.48V48.3512H145.42V47.3112C145.179 47.6959 144.84 48.0096 144.437 48.2204C144.035 48.4312 143.584 48.5316 143.13 48.5112C142.725 48.5171 142.322 48.4384 141.948 48.2802C141.575 48.122 141.238 47.8877 140.96 47.5922C140.667 47.2944 140.436 46.9409 140.282 46.5527C140.127 46.1644 140.052 45.7491 140.06 45.3312C140.051 44.9151 140.126 44.5014 140.281 44.115C140.436 43.7285 140.667 43.3773 140.96 43.0822C141.236 42.7835 141.572 42.5463 141.946 42.3859C142.32 42.2255 142.723 42.1455 143.13 42.1512C143.584 42.1309 144.035 42.2312 144.437 42.442C144.84 42.6528 145.179 42.9666 145.42 43.3512V39.8862ZM143.26 47.4932C143.546 47.4997 143.83 47.448 144.096 47.3415C144.361 47.2349 144.602 47.0756 144.804 46.8732C145.006 46.6707 145.164 46.4295 145.27 46.1639C145.376 45.8984 145.427 45.6141 145.42 45.3282C145.425 45.0432 145.372 44.7601 145.265 44.4958C145.158 44.2315 144.999 43.9914 144.797 43.7895C144.596 43.5877 144.356 43.4283 144.092 43.3207C143.828 43.2131 143.545 43.1596 143.26 43.1632C142.976 43.1609 142.694 43.2155 142.431 43.3237C142.168 43.4318 141.93 43.5915 141.729 43.7932C141.529 43.9949 141.371 44.2346 141.265 44.4982C141.159 44.7618 141.106 45.044 141.11 45.3282C141.104 45.6147 141.156 45.8994 141.263 46.1654C141.369 46.4313 141.528 46.6731 141.73 46.8762C141.931 47.0768 142.169 47.2348 142.432 47.3408C142.695 47.4468 142.977 47.4987 143.26 47.4932Z"></path>
<path fill="#1A1A18" d="M138.27 41.2001C138.129 41.2043 137.991 41.1658 137.872 41.0898C137.754 41.0138 137.661 40.9039 137.606 40.7742C137.551 40.6446 137.536 40.5014 137.563 40.3633C137.591 40.2252 137.66 40.0986 137.76 40.0001C137.824 39.9285 137.903 39.8719 137.991 39.8342C138.079 39.7965 138.174 39.7788 138.27 39.7821C138.363 39.7809 138.455 39.7997 138.539 39.8373C138.624 39.875 138.699 39.9305 138.76 40.0001C138.827 40.0645 138.88 40.1416 138.916 40.2268C138.952 40.312 138.971 40.4036 138.971 40.4961C138.971 40.5887 138.952 40.6803 138.916 40.7655C138.88 40.8507 138.827 40.9278 138.76 40.9921C138.698 41.059 138.622 41.1121 138.537 41.1479C138.453 41.1837 138.362 41.2015 138.27 41.2001ZM137.73 48.3471V42.3001H138.79V48.3471H137.73Z"></path>
<path fill="#1A1A18" d="M133.14 43.9322C133.14 44.0499 133.173 44.1654 133.235 44.2657C133.297 44.3659 133.385 44.4471 133.49 44.5002C133.757 44.6509 134.043 44.7649 134.34 44.8392C134.673 44.9198 135.003 45.0165 135.33 45.1292C135.661 45.2291 135.956 45.4221 136.18 45.6852C136.426 45.9591 136.555 46.3177 136.54 46.6852C136.546 46.941 136.49 47.1946 136.377 47.4241C136.264 47.6536 136.097 47.8523 135.89 48.0032C135.423 48.3504 134.851 48.5269 134.27 48.5032C133.737 48.5198 133.21 48.3856 132.75 48.1162C132.348 47.8785 132.032 47.5182 131.85 47.0882L132.76 46.5682C132.856 46.8556 133.051 47.0997 133.31 47.2572C133.598 47.4343 133.932 47.5226 134.27 47.5112C134.569 47.5211 134.865 47.4543 135.13 47.3172C135.238 47.2526 135.327 47.16 135.386 47.0494C135.446 46.9387 135.475 46.8139 135.47 46.6882C135.469 46.5723 135.435 46.459 135.373 46.3609C135.312 46.2628 135.224 46.1837 135.12 46.1322C134.856 45.9764 134.569 45.862 134.27 45.7932C133.93 45.7042 133.6 45.6042 133.27 45.4932C132.943 45.3847 132.65 45.1931 132.42 44.9372C132.182 44.6626 132.057 44.3082 132.07 43.9452C132.064 43.6969 132.117 43.4508 132.222 43.2262C132.328 43.0016 132.485 42.8047 132.68 42.6512C133.116 42.303 133.663 42.1227 134.22 42.1432C134.679 42.1349 135.132 42.2521 135.53 42.4822C135.91 42.689 136.214 43.0107 136.4 43.4012L135.52 43.9012C135.414 43.6507 135.23 43.4407 134.997 43.3015C134.763 43.1624 134.491 43.1013 134.22 43.1272C133.947 43.119 133.678 43.1951 133.45 43.3452C133.351 43.407 133.271 43.4938 133.216 43.5969C133.162 43.7 133.135 43.8157 133.14 43.9322Z"></path>
<path fill="#1A1A18" d="M128.03 42.1472C128.437 42.1415 128.84 42.2215 129.214 42.3819C129.588 42.5423 129.924 42.7795 130.2 43.0782C130.493 43.3733 130.725 43.7245 130.879 44.111C131.034 44.4974 131.109 44.9111 131.1 45.3272C131.108 45.7451 131.033 46.1604 130.878 46.5487C130.724 46.937 130.493 47.2904 130.2 47.5882C129.922 47.8837 129.585 48.118 129.212 48.2763C128.838 48.4345 128.436 48.5132 128.03 48.5072C127.575 48.5276 127.122 48.4274 126.719 48.2166C126.315 48.0059 125.973 47.6922 125.73 47.3072V48.3472H124.67V39.8862H125.73V43.3452C125.974 42.9606 126.315 42.6473 126.719 42.4369C127.123 42.2266 127.575 42.1266 128.03 42.1472ZM127.89 47.4922C128.174 47.4995 128.456 47.4485 128.719 47.3424C128.982 47.2363 129.221 47.0773 129.42 46.8752C129.622 46.6721 129.781 46.4303 129.887 46.1643C129.994 45.8984 130.046 45.6137 130.04 45.3272C130.047 45.0425 129.995 44.7594 129.888 44.4953C129.782 44.2311 129.622 43.9916 129.42 43.7912C129.222 43.586 128.984 43.4241 128.721 43.3158C128.458 43.2075 128.175 43.1552 127.89 43.1622C127.605 43.1586 127.322 43.2121 127.058 43.3197C126.794 43.4273 126.554 43.5867 126.353 43.7885C126.151 43.9904 125.992 44.2305 125.885 44.4948C125.778 44.7591 125.726 45.0422 125.73 45.3272C125.724 45.6137 125.776 45.8984 125.882 46.1644C125.989 46.4303 126.148 46.6721 126.35 46.8752C126.551 47.0774 126.792 47.2365 127.056 47.3428C127.321 47.449 127.605 47.4992 127.89 47.4922Z"></path>
<path fill="#1A1A18" d="M122.01 42.3003H123.07V48.3473H122.01V47.4763C121.807 47.809 121.517 48.0804 121.172 48.2614C120.827 48.4425 120.439 48.5264 120.05 48.5043C119.733 48.5193 119.416 48.4679 119.12 48.3534C118.824 48.2388 118.555 48.0638 118.33 47.8393C117.888 47.3367 117.658 46.6819 117.69 46.0133V42.3003H118.75V45.9523C118.737 46.1608 118.765 46.3699 118.834 46.5673C118.902 46.7646 119.01 46.9462 119.15 47.1013C119.297 47.2388 119.47 47.3452 119.659 47.4139C119.848 47.4827 120.049 47.5124 120.25 47.5013C120.485 47.5111 120.719 47.4733 120.939 47.3901C121.159 47.3069 121.36 47.1801 121.53 47.0173C121.882 46.5954 122.054 46.0527 122.01 45.5053V42.3003Z"></path>
<path fill="#1A1A18" d="M113.66 48.5071C112.94 48.5294 112.229 48.3358 111.62 47.9511C111.068 47.5885 110.653 47.0522 110.44 46.4271L111.41 45.8711C111.548 46.3526 111.851 46.7702 112.266 47.051C112.681 47.3317 113.182 47.4578 113.68 47.4071C114.153 47.4375 114.623 47.3144 115.02 47.0561C115.166 46.9441 115.284 46.7993 115.364 46.6334C115.444 46.4675 115.483 46.2852 115.48 46.1011C115.489 45.923 115.451 45.7458 115.37 45.5867C115.289 45.4277 115.169 45.2924 115.02 45.1941C114.533 44.9154 114.012 44.7 113.47 44.5531C113.12 44.4405 112.85 44.3518 112.66 44.2871C112.48 44.2141 112.24 44.1101 111.96 43.9731C111.731 43.8624 111.522 43.7155 111.34 43.5381C111.183 43.3615 111.055 43.1614 110.96 42.9451C110.787 42.5059 110.753 42.0239 110.864 41.565C110.975 41.106 111.225 40.6926 111.58 40.3811C112.11 39.9421 112.782 39.7101 113.47 39.7281C114.092 39.7115 114.704 39.8891 115.22 40.2361C115.716 40.5678 116.108 41.0331 116.35 41.5781L115.41 42.1221C115.271 41.7244 115.006 41.3824 114.657 41.1471C114.307 40.9117 113.891 40.7956 113.47 40.8161C113.072 40.7968 112.679 40.9166 112.36 41.1551C112.22 41.2625 112.108 41.4021 112.033 41.5621C111.958 41.722 111.923 41.8977 111.93 42.0741C111.923 42.2372 111.955 42.3997 112.025 42.5473C112.094 42.695 112.199 42.8233 112.33 42.9211C112.762 43.1867 113.23 43.3888 113.72 43.5211L114.22 43.6781C114.31 43.7101 114.46 43.7671 114.66 43.8471C114.88 43.9281 115.03 43.9921 115.13 44.0411C115.23 44.0901 115.35 44.1581 115.51 44.2471C115.648 44.313 115.776 44.3986 115.89 44.5011C115.97 44.5821 116.06 44.6821 116.17 44.8011C116.272 44.9017 116.353 45.0209 116.41 45.1521C116.464 45.2886 116.505 45.4304 116.53 45.5751C116.575 45.7381 116.598 45.9061 116.6 46.0751C116.611 46.4148 116.542 46.7522 116.4 47.0608C116.257 47.3694 116.045 47.6406 115.78 47.8531C115.171 48.3107 114.421 48.542 113.66 48.5071Z"></path>
<path fill="#EE1D25" d="M150.92 25.1823L148.95 21.1723C148.91 21.0843 148.85 20.9723 148.78 20.8213C148.591 20.2657 148.208 19.7974 147.7 19.5033C147.66 19.4853 147.58 19.4433 147.48 19.4033C146.84 19.1123 146.52 18.7143 146.52 18.2033C146.52 17.5606 146.96 17.069 147.84 16.7283C149.082 16.3278 150.386 16.1507 151.69 16.2053C152.799 16.1421 153.91 16.2624 154.98 16.5613C155.241 16.6375 155.469 16.7975 155.63 17.0165C155.791 17.2356 155.875 17.5016 155.87 17.7733C155.867 17.9404 155.828 18.1049 155.753 18.2546C155.679 18.4043 155.572 18.5354 155.44 18.6383C155.16 18.8743 155.01 19.0503 155.01 19.1473C155.028 19.3374 155.072 19.5241 155.14 19.7023C155.23 19.943 155.36 20.2713 155.53 20.6873C155.65 20.999 155.826 21.2859 156.05 21.5333C156.218 21.6894 156.441 21.7725 156.67 21.7643C156.772 21.7651 156.873 21.7454 156.968 21.7064C157.062 21.6674 157.148 21.6099 157.22 21.5373C157.44 21.2938 157.616 21.0135 157.74 20.7093C157.884 20.4345 158.004 20.1482 158.1 19.8533C158.171 19.6656 158.218 19.4697 158.24 19.2703C158.24 19.0803 158.06 18.8313 157.72 18.5213C157.582 18.4229 157.466 18.2975 157.378 18.1527C157.291 18.008 157.233 17.8469 157.21 17.6793C157.222 17.4365 157.309 17.2034 157.459 17.0127C157.61 16.8219 157.817 16.683 158.05 16.6153C158.823 16.3266 159.646 16.1977 160.47 16.2363C161.228 16.1865 161.987 16.3099 162.69 16.5973C162.907 16.6881 163.092 16.842 163.22 17.039C163.348 17.2361 163.415 17.4672 163.41 17.7023C163.424 17.9871 163.343 18.2684 163.18 18.5023C162.887 18.7768 162.529 18.9725 162.14 19.0713C161.719 19.2872 161.348 19.5875 161.048 19.9535C160.749 20.3195 160.528 20.7432 160.4 21.1983L160.37 21.2723C160.12 21.8923 159.66 23.2283 158.97 25.3053C158.469 26.9313 157.81 28.5039 157 30.0003C156.377 31.1358 155.497 32.1098 154.43 32.8443C153.459 33.4585 152.329 33.7736 151.18 33.7503C150.071 33.7942 148.98 33.4654 148.08 32.8163C147.706 32.5334 147.405 32.1656 147.202 31.7435C146.999 31.3213 146.899 30.8568 146.91 30.3883C146.913 29.7545 147.166 29.1473 147.613 28.6982C148.06 28.2491 148.666 27.9941 149.3 27.9883C149.731 27.9777 150.156 28.0849 150.53 28.2983C150.885 28.5149 151.17 28.8299 151.35 29.2053C151.492 29.5011 151.596 29.8135 151.66 30.1353C151.79 30.6303 151.97 30.8753 152.2 30.8753C152.29 30.8794 152.38 30.8618 152.461 30.824C152.543 30.7863 152.615 30.7294 152.67 30.6583C152.796 30.4823 152.856 30.2679 152.84 30.0523C152.84 29.4323 152.21 27.8373 150.95 25.2523C150.935 25.2303 150.922 25.2073 150.91 25.1833L150.92 25.1823Z" clip-rule="evenodd" fill-rule="evenodd"></path>
<path fill="#EE1D25" d="M136.37 27.5691C136.381 27.3201 136.471 27.0811 136.628 26.8871C136.784 26.6931 136.999 26.5543 137.24 26.4911C137.395 26.4337 137.543 26.3574 137.68 26.2641C137.9 26.1111 138.06 25.6581 138.14 24.9231C138.22 24.1881 138.27 22.5641 138.27 20.0621V19.0771C138.295 18.3134 138.255 17.549 138.15 16.7921C138.098 16.4822 137.951 16.1961 137.73 15.9731C137.437 15.7715 137.121 15.6037 136.79 15.4731C136.579 15.4067 136.393 15.2763 136.258 15.0998C136.124 14.9234 136.048 14.7097 136.04 14.4881C136.031 14.1805 136.13 13.8794 136.32 13.6371C136.601 13.3275 136.941 13.0776 137.32 12.9021C138.204 12.4512 139.141 12.1151 140.11 11.9021C141.135 11.6562 142.186 11.5304 143.24 11.5271C143.592 11.4904 143.948 11.5601 144.26 11.7271C144.366 11.8395 144.446 11.9744 144.492 12.1218C144.539 12.2691 144.552 12.4251 144.53 12.5781C144.53 12.6341 144.52 12.8181 144.52 13.1421C144.46 15.6581 144.43 18.3131 144.43 21.1201C144.413 22.3118 144.46 23.5035 144.57 24.6901C144.573 25.2037 144.73 25.7046 145.02 26.1281C145.141 26.2406 145.275 26.3371 145.42 26.4151C145.632 26.5165 145.813 26.6722 145.944 26.8663C146.076 27.0605 146.154 27.2861 146.17 27.5201C146.17 28.0981 145.75 28.5371 144.9 28.8431C143.685 29.1922 142.423 29.3451 141.16 29.2961C139.942 29.3485 138.723 29.2064 137.55 28.8751C136.77 28.5881 136.37 28.1531 136.37 27.5661V27.5691Z" clip-rule="evenodd" fill-rule="evenodd"></path>
<path fill="#EE1D25" d="M128.93 29.3774C127.733 29.4246 126.536 29.2715 125.39 28.9244C124.58 28.6194 124.18 28.1704 124.18 27.5974C124.18 27.1974 124.49 26.7974 125.15 26.3974L125.23 26.3514C125.248 26.3396 125.265 26.3255 125.28 26.3094C125.524 26.1967 125.724 26.0065 125.85 25.7684C125.955 25.3513 126.022 24.9255 126.05 24.4964C126.11 23.8964 126.13 23.2154 126.13 22.4664C126.13 21.9434 125.89 21.6664 125.44 21.6294C125.3 21.6204 125.17 21.6114 125.09 21.5974C125.01 21.5834 124.91 21.5834 124.76 21.5694C124.2 21.5234 123.93 21.2694 123.93 20.8294C123.916 20.3708 123.949 19.912 124.03 19.4604C124.1 19.1504 124.2 18.9704 124.33 18.9054C124.533 18.8084 124.755 18.7562 124.98 18.7524C125.28 18.7294 125.43 18.6694 125.43 18.5904C125.43 18.5724 125.25 18.2394 124.9 17.5734C124.567 16.9807 124.385 16.3151 124.37 15.6354C124.373 15.0471 124.524 14.4691 124.811 13.9555C125.098 13.4419 125.51 13.0093 126.01 12.6984C127.257 11.8796 128.73 11.4751 130.22 11.5424C131.517 11.4942 132.801 11.8183 133.92 12.4764C134.344 12.6894 134.704 13.0117 134.962 13.41C135.221 13.8082 135.368 14.2681 135.39 14.7424C135.408 15.0246 135.363 15.3072 135.259 15.5702C135.156 15.8333 134.995 16.0703 134.79 16.2644C134.399 16.5554 133.938 16.7396 133.454 16.7988C132.971 16.8581 132.48 16.7904 132.03 16.6024C131.584 16.3368 131.185 15.9988 130.85 15.6024C130.825 15.5761 130.801 15.5484 130.78 15.5194C130.22 14.9194 129.76 14.6264 129.38 14.6264C129.268 14.6177 129.156 14.6337 129.051 14.6733C128.946 14.7129 128.851 14.775 128.773 14.8554C128.694 14.9357 128.635 15.0322 128.598 15.1382C128.561 15.2441 128.548 15.3568 128.56 15.4684C128.556 15.6769 128.611 15.8822 128.72 16.0604C128.86 16.2914 129.039 16.4965 129.25 16.6664C129.598 16.9603 129.973 17.2204 130.37 17.4434C130.666 17.6098 130.953 17.792 131.23 17.9894C131.399 18.1269 131.538 18.2969 131.64 18.4894C131.67 18.5494 131.69 18.5824 131.69 18.5824C131.817 18.6467 131.957 18.6844 132.1 18.6934C132.27 18.7114 132.53 18.7214 132.89 18.7214H133.79C134.12 18.7214 134.31 18.7634 134.39 18.8464C134.501 19.0778 134.543 19.3367 134.51 19.5914C134.542 20.1361 134.488 20.6824 134.35 21.2104C134.24 21.4464 133.94 21.5664 133.44 21.5664H133.03C132.694 21.5248 132.353 21.5825 132.05 21.7324C131.91 21.9375 131.85 22.1862 131.88 22.4324C131.86 23.2567 131.933 24.0807 132.1 24.8884C132.121 25.1124 132.188 25.3298 132.296 25.527C132.405 25.7243 132.552 25.8973 132.73 26.0354C132.936 26.1457 133.15 26.24 133.37 26.3174C134.04 26.5574 134.38 26.9464 134.38 27.4734C134.38 28.1114 133.93 28.5834 133.04 28.8934C131.705 29.2594 130.322 29.4153 128.94 29.3554L128.93 29.3774Z" clip-rule="evenodd" fill-rule="evenodd"></path>
<path fill="#EE1D25" d="M109.05 27.3332C109.065 27.0781 109.145 26.8312 109.284 26.6164C109.422 26.4016 109.614 26.2262 109.84 26.1072C109.91 26.0612 109.97 26.0242 110 26.0012C110.127 25.9226 110.244 25.8293 110.35 25.7232C110.414 25.646 110.462 25.5561 110.49 25.4592C110.59 24.9625 110.647 24.4579 110.66 23.9512C110.7 23.1692 110.72 22.2582 110.72 21.2082V20.8302C110.738 20.6043 110.708 20.3771 110.63 20.1642C110.518 20.0208 110.369 19.9105 110.2 19.8452C109.889 19.6986 109.606 19.5016 109.36 19.2622C109.209 19.0961 109.123 18.8807 109.12 18.6562C109.14 18.3827 109.266 18.1276 109.47 17.9442C109.762 17.6704 110.1 17.4512 110.47 17.2972C111.313 16.9157 112.194 16.6274 113.1 16.4372C113.985 16.2281 114.89 16.1181 115.8 16.1092C116.029 16.0963 116.257 16.1457 116.46 16.2522C116.537 16.3037 116.602 16.3714 116.65 16.4504C116.698 16.5295 116.729 16.6181 116.74 16.7102C116.76 16.8722 116.79 17.0752 116.81 17.3342C116.84 17.7552 116.94 17.9682 117.1 17.9682C117.24 17.9682 117.36 17.8385 117.46 17.5792C117.54 17.3942 117.61 17.2602 117.66 17.1672C117.897 16.8218 118.221 16.5457 118.6 16.3672C119.028 16.1812 119.493 16.0911 119.96 16.1032C120.881 16.0624 121.784 16.3694 122.49 16.9632C122.807 17.2416 123.058 17.5866 123.225 17.9735C123.393 18.3605 123.473 18.7797 123.46 19.2012C123.471 19.6244 123.399 20.0458 123.246 20.4406C123.093 20.8355 122.863 21.196 122.57 21.5012C122.278 21.8005 121.928 22.0357 121.54 22.1917C121.153 22.3477 120.737 22.4211 120.32 22.4072C119.874 22.4115 119.431 22.3251 119.02 22.1532C118.639 21.9973 118.3 21.7549 118.03 21.4452C117.901 21.2872 117.797 21.1109 117.72 20.9222C117.61 20.6772 117.48 20.5522 117.32 20.5522C117.14 20.5522 117.03 20.7422 116.95 21.1212C116.863 21.8347 116.829 22.5537 116.85 23.2722C116.81 24.0077 116.87 24.7452 117.03 25.4642C117.086 25.6251 117.174 25.7729 117.29 25.8986C117.405 26.0242 117.544 26.1252 117.7 26.1952C117.76 26.2182 117.84 26.2552 117.94 26.2952C118.65 26.6282 119.01 27.0402 119.01 27.5342C119.01 28.1452 118.64 28.5792 117.89 28.8432C116.647 29.1673 115.363 29.3021 114.08 29.2432C112.805 29.2978 111.529 29.1334 110.31 28.7572C109.47 28.4379 109.05 27.9615 109.05 27.3282V27.3332Z" clip-rule="evenodd" fill-rule="evenodd"></path>
<path fill="#EE1D25" d="M101.39 20.7744H101.65C102.118 20.8148 102.59 20.7676 103.04 20.6354C103.2 20.5424 103.27 20.3114 103.27 19.9414C103.278 19.7393 103.246 19.5376 103.175 19.348C103.105 19.1584 102.998 18.9845 102.86 18.8364C102.719 18.6945 102.551 18.5831 102.365 18.5092C102.179 18.4352 101.98 18.4002 101.78 18.4064C101.561 18.4048 101.344 18.4484 101.143 18.5345C100.942 18.6205 100.76 18.7471 100.61 18.9064C100.45 19.062 100.323 19.2486 100.237 19.4549C100.151 19.6612 100.108 19.8829 100.11 20.1064C100.098 20.202 100.105 20.299 100.131 20.3919C100.157 20.4848 100.201 20.5716 100.26 20.6474C100.508 20.7568 100.781 20.7999 101.05 20.7724L101.39 20.7744ZM106.79 23.1844H100.97C100.757 23.1708 100.544 23.1959 100.34 23.2584C100.289 23.2814 100.247 23.3195 100.218 23.3673C100.19 23.4152 100.176 23.4707 100.18 23.5264C100.203 23.8586 100.302 24.1811 100.47 24.4685C100.639 24.7558 100.871 25.0002 101.15 25.1824C101.789 25.6826 102.579 25.95 103.39 25.9404C104.095 25.9211 104.786 25.7408 105.41 25.4134C105.818 25.1812 106.256 25.004 106.71 24.8864C106.857 24.8827 107.002 24.9125 107.136 24.9735C107.269 25.0345 107.387 25.1251 107.48 25.2384C107.689 25.491 107.799 25.8108 107.79 26.1384C107.768 26.5215 107.612 26.8848 107.35 27.1654C107.019 27.5709 106.62 27.9151 106.17 28.1824C105.5 28.5935 104.777 28.9111 104.02 29.1264C103.245 29.3403 102.444 29.4459 101.64 29.4404C99.7332 29.5074 97.875 28.8287 96.4601 27.5484C95.5535 26.7091 94.9095 25.6252 94.606 24.4276C94.3025 23.23 94.3526 21.9701 94.7502 20.8004C94.9807 20.1334 95.3185 19.5086 95.7502 18.9504C96.4388 18.04 97.3378 17.3102 98.3702 16.8234C99.4316 16.3168 100.594 16.0576 101.77 16.0654C103.446 15.9974 105.091 16.5293 106.41 17.5654C106.985 18.0146 107.448 18.5906 107.764 19.2483C108.08 19.9061 108.239 20.6278 108.23 21.3574C108.274 21.8535 108.155 22.3504 107.89 22.7724C107.751 22.9247 107.578 23.0425 107.386 23.1163C107.193 23.1901 106.986 23.2178 106.78 23.1974L106.79 23.1844Z" clip-rule="evenodd" fill-rule="evenodd"></path>
<path fill="#EE1D25" d="M83.6802 19.0501C83.5902 19.0501 83.4801 19.0501 83.3301 19.0361C82.1901 19.0131 81.6201 18.6611 81.6201 17.9911C81.6201 17.4641 81.9801 16.9781 82.7001 16.5201C82.9001 16.4041 83.0502 16.3031 83.1602 16.2291L83.2301 16.1831C86.1101 14.3101 87.9502 13.3761 88.7802 13.3761C88.9517 13.3536 89.126 13.3679 89.2915 13.4181C89.457 13.4682 89.61 13.5531 89.7401 13.6671C89.9627 14.161 90.049 14.7055 89.9901 15.2441V16.3591H92.8401C93.096 16.3284 93.3554 16.3685 93.5901 16.4751C93.6801 16.5541 93.7201 16.7391 93.7201 17.0301V18.0891C93.7492 18.3556 93.6969 18.6248 93.5701 18.8611C93.2914 19.011 92.9755 19.0769 92.6602 19.0511L90.6501 19.1251H90.5701C90.0601 19.1441 89.8002 19.3421 89.8002 19.7251V24.1601C89.7678 24.5528 89.8897 24.9427 90.1401 25.2471C90.2774 25.3753 90.4399 25.4736 90.6172 25.5358C90.7945 25.5979 90.9828 25.6225 91.1702 25.6081C91.4734 25.5839 91.7689 25.5007 92.0402 25.3631C92.2986 25.2298 92.5805 25.1479 92.8701 25.1221C92.9976 25.1252 93.1221 25.1619 93.231 25.2284C93.3398 25.295 93.4292 25.389 93.4901 25.5011C93.6658 25.8043 93.7525 26.1509 93.7401 26.5011C93.7401 27.1991 93.2001 27.8557 92.1201 28.4711C90.9784 29.0976 89.6922 29.4135 88.3901 29.3871C87.1168 29.4773 85.8582 29.0693 84.8801 28.2491C84.4599 27.8106 84.136 27.2891 83.9293 26.718C83.7227 26.1469 83.6379 25.5389 83.6802 24.9331V19.0501Z" clip-rule="evenodd" fill-rule="evenodd"></path>
<path fill="#EE1D25" d="M71.3597 19.05C71.2697 19.05 71.1598 19.05 71.0098 19.036C69.8698 19.013 69.2998 18.661 69.2998 17.991C69.2998 17.464 69.6598 16.978 70.3798 16.52C70.5798 16.404 70.7297 16.303 70.8397 16.229L70.9198 16.183C73.7898 14.31 75.6297 13.376 76.4597 13.376C76.6313 13.3523 76.806 13.3661 76.9717 13.4163C77.1374 13.4666 77.2903 13.5521 77.4198 13.667C77.6423 14.1609 77.7286 14.7054 77.6698 15.244V16.359H80.5198C80.7757 16.3283 81.0351 16.3684 81.2698 16.475C81.3598 16.554 81.3998 16.739 81.3998 17.03V18.089C81.4321 18.3569 81.3759 18.628 81.2397 18.861C80.9699 19.0149 80.6589 19.0813 80.3497 19.051L78.3397 19.125H78.2498C77.7398 19.144 77.4797 19.342 77.4797 19.725V24.16C77.4474 24.5527 77.5693 24.9427 77.8197 25.247C77.957 25.3752 78.1196 25.4735 78.2969 25.5356C78.4742 25.5977 78.6624 25.6224 78.8497 25.608C79.1532 25.5851 79.4489 25.5018 79.7197 25.363C79.9787 25.2309 80.2604 25.1491 80.5498 25.122C80.6776 25.124 80.8025 25.1602 80.9115 25.2268C81.0205 25.2935 81.1098 25.3882 81.1698 25.501C81.3535 25.8012 81.444 26.1493 81.4298 26.501C81.4298 27.201 80.8898 27.856 79.7998 28.471C78.6585 29.0986 77.3719 29.4145 76.0697 29.387C74.7966 29.4756 73.5388 29.0677 72.5598 28.249C72.1396 27.8105 71.8157 27.289 71.609 26.7179C71.4023 26.1468 71.3174 25.5388 71.3597 24.933V19.05Z" clip-rule="evenodd" fill-rule="evenodd"></path>
<path fill="#EE1D25" d="M52.1402 24.5161V21.1911C52.1639 20.8666 52.1197 20.5406 52.0102 20.2341C51.8964 20.0314 51.7262 19.866 51.5202 19.7581C51.4602 19.7261 51.4102 19.6891 51.3402 19.6581C51.1373 19.5672 50.9631 19.4227 50.8362 19.2402C50.7094 19.0576 50.6347 18.844 50.6202 18.6221C50.6185 18.4707 50.6498 18.3206 50.712 18.1825C50.7741 18.0443 50.8657 17.9213 50.9802 17.8221C51.3837 17.5119 51.8415 17.2796 52.3301 17.1371C53.2711 16.7953 54.2374 16.5279 55.2202 16.3371C56.0057 16.163 56.8059 16.0625 57.6102 16.0371C57.8527 16.0089 58.0974 16.0681 58.3002 16.2041C58.4382 16.3851 58.5025 16.6117 58.4802 16.8381C58.4802 16.9211 58.4201 17.6711 58.3201 19.1041C58.2201 20.5371 58.1702 21.9211 58.1702 23.2571C58.1158 23.9576 58.2324 24.6608 58.5102 25.3061C58.6275 25.4994 58.7962 25.6563 58.9975 25.7592C59.1988 25.8622 59.4248 25.9071 59.6502 25.8891C59.9193 25.9168 60.1908 25.8707 60.4356 25.7558C60.6805 25.641 60.8895 25.4617 61.0402 25.2371C61.3495 24.4641 61.4761 23.6301 61.4102 22.8001V21.2091C61.4358 20.8799 61.3915 20.549 61.2802 20.2381C61.165 20.0375 60.9951 19.8737 60.7902 19.7661C60.7602 19.7481 60.7202 19.7201 60.6602 19.6831C60.4521 19.5947 60.2726 19.4502 60.1419 19.2656C60.0112 19.0811 59.9345 18.8638 59.9202 18.6381C59.9186 18.4839 59.9498 18.3311 60.0119 18.1899C60.074 18.0486 60.1655 17.9223 60.2802 17.8191C60.6767 17.5177 61.1236 17.2891 61.6002 17.1441C62.5195 16.8095 63.4621 16.5421 64.4202 16.3441C65.1853 16.1677 65.9655 16.0655 66.7502 16.0391C67.1102 16.0391 67.3401 16.1041 67.4401 16.2291C67.5836 16.624 67.635 17.0464 67.5902 17.4641C67.5902 18.3308 67.5602 19.5778 67.5002 21.2051C67.4402 22.8331 67.4102 24.0121 67.4102 24.7521C67.3832 24.9885 67.4222 25.2276 67.5228 25.4431C67.6234 25.6586 67.7817 25.8421 67.9802 25.9731C68.0002 25.9921 68.0202 26.0011 68.0202 26.0101C68.0402 26.0101 68.0602 26.0241 68.0602 26.0331C68.253 26.1165 68.4202 26.2494 68.5449 26.4184C68.6696 26.5874 68.7474 26.7864 68.7702 26.9951C68.7702 27.6191 68.1502 28.1421 66.9302 28.5771C65.4382 29.054 63.876 29.2745 62.3102 29.2291C62.0704 29.251 61.8285 29.2228 61.6002 29.1461C61.5005 29.0591 61.4394 28.9362 61.4302 28.8041C61.4302 28.7111 61.4102 28.5681 61.3902 28.3831C61.3702 27.8601 61.2202 27.5971 60.9202 27.5971C60.6598 27.6409 60.4189 27.7634 60.2302 27.9481C60.1302 28.0171 60.0602 28.0731 60.0202 28.1011C59.5134 28.4804 58.9497 28.7771 58.3502 28.9801C57.773 29.1537 57.1727 29.2381 56.5701 29.2301C55.9644 29.28 55.3549 29.2038 54.7801 29.0064C54.2052 28.809 53.6775 28.4947 53.2302 28.0831C52.4275 27.0867 52.0375 25.8205 52.1402 24.5451V24.5161Z" clip-rule="evenodd" fill-rule="evenodd"></path>
<path fill="#EE1D25" d="M39.2499 14.7629V18.3839C39.2318 18.5361 39.2672 18.6899 39.3499 18.8189C39.4694 18.8936 39.6094 18.9286 39.7499 18.9189C40.0249 18.947 40.3026 18.9144 40.5635 18.8233C40.8245 18.7322 41.0622 18.585 41.26 18.3919C41.6153 17.8855 41.7784 17.2689 41.7199 16.6529C41.7919 15.9983 41.6289 15.3394 41.26 14.7939C41.0374 14.6064 40.779 14.4663 40.5004 14.3821C40.2219 14.2978 39.9291 14.2712 39.64 14.3039C39.526 14.2937 39.4116 14.3162 39.31 14.3689C39.2774 14.3942 39.2519 14.4274 39.2362 14.4655C39.2204 14.5035 39.2148 14.5451 39.2199 14.5859C39.2196 14.6156 39.223 14.6451 39.2299 14.6739C39.2392 14.7067 39.2459 14.7401 39.2499 14.7739V14.7629ZM39.29 22.1299C39.29 22.7769 39.29 23.3739 39.3 23.9299C39.31 24.4859 39.3399 24.9239 39.3599 25.2429C39.3481 25.5694 39.4353 25.8918 39.6099 26.1679C39.8431 26.3118 40.1176 26.3737 40.39 26.3439C40.6843 26.3604 40.9786 26.3099 41.2506 26.1961C41.5225 26.0822 41.765 25.9082 41.9599 25.6869C42.3543 25.1332 42.5451 24.4602 42.4999 23.7819C42.5268 23.4713 42.4862 23.1586 42.3809 22.8652C42.2756 22.5718 42.1081 22.3046 41.89 22.0819C41.3686 21.6713 40.7114 21.4731 40.05 21.5269C39.8353 21.5013 39.618 21.5451 39.43 21.6519C39.3705 21.7138 39.3259 21.7886 39.2999 21.8704C39.2739 21.9523 39.2671 22.039 39.28 22.1239L39.29 22.1299ZM43.42 29.0629H33.0799C32.4872 29.0998 31.8943 28.9952 31.3499 28.7579C31.1762 28.6718 31.031 28.5374 30.9317 28.3708C30.8324 28.2043 30.7832 28.0127 30.79 27.8189C30.7929 27.5985 30.855 27.383 30.9699 27.1949C31.0899 27.0009 31.2 26.8949 31.28 26.8949C31.55 26.8591 31.7982 26.7279 31.9799 26.5249C32.2416 26.3077 32.4273 26.0128 32.51 25.6829C32.6601 24.8548 32.7504 24.017 32.78 23.1759C32.84 21.9829 32.8799 20.5949 32.8799 19.0039V17.1219C32.8941 16.4128 32.8607 15.7036 32.78 14.9989C32.7773 14.8654 32.7475 14.7338 32.6924 14.6122C32.6374 14.4905 32.5583 14.3812 32.4599 14.2909C32.2689 14.1922 32.0719 14.1057 31.8699 14.0319C31.1499 13.7726 30.79 13.3933 30.79 12.8939C30.7793 12.6836 30.8292 12.4747 30.9338 12.2919C31.0384 12.1092 31.1932 11.9603 31.3799 11.8629C31.9697 11.6116 32.6102 11.5024 33.2499 11.5439C33.5799 11.5439 34.1099 11.5529 34.8599 11.5719C35.6099 11.5909 36.1899 11.5949 36.6299 11.5949C37.3699 11.5949 38.2899 11.5809 39.3799 11.5579C40.4699 11.5349 41.2 11.5259 41.54 11.5259C43.3084 11.3983 45.079 11.7434 46.67 12.5259C47.2034 12.8519 47.6373 13.3177 47.9246 13.8728C48.212 14.428 48.3418 15.0512 48.3 15.6749C48.3088 16.2127 48.2066 16.7464 47.9999 17.2429C47.8072 17.6982 47.5049 18.0987 47.1199 18.4089C46.9899 18.5009 46.8199 18.6259 46.6199 18.7739C46.2599 18.9959 46.0899 19.1899 46.0899 19.3429C46.0899 19.4959 46.2999 19.6339 46.7199 19.7219C47.0132 19.7804 47.3009 19.8641 47.5799 19.9719C48.2618 20.2435 48.8349 20.7329 49.2099 21.3639C49.6184 22.0527 49.8231 22.8434 49.8 23.6439C49.8292 24.3898 49.6876 25.1325 49.3861 25.8154C49.0845 26.4982 48.631 27.1031 48.06 27.5839C46.7439 28.6233 45.0948 29.1489 43.42 29.0629Z" clip-rule="evenodd" fill-rule="evenodd"></path>
<path fill="#EE1D25" d="M15.4 13.8841C15.2797 13.0147 14.9764 12.1807 14.51 11.4371C14.4 11.2101 14.2801 10.9881 14.1601 10.7801C14.1301 10.7291 14.11 10.6801 14.08 10.6271C14.04 10.5581 14.04 10.5671 14.03 10.5441C14.02 10.5211 14 10.4841 13.99 10.4521C13.92 10.3321 13.8601 10.2121 13.7901 10.0911C13.7201 9.97012 13.66 9.84612 13.59 9.72612C13.56 9.66112 13.53 9.60112 13.51 9.55512C13.49 9.50912 13.4501 9.44412 13.4201 9.37912C13.2895 9.12792 13.1984 8.85808 13.15 8.57912C13.1473 8.5438 13.1516 8.50829 13.1627 8.47466C13.1739 8.44104 13.1916 8.40996 13.2149 8.38325C13.2381 8.35654 13.2666 8.33473 13.2984 8.31908C13.3301 8.30343 13.3647 8.29427 13.4 8.29212C13.4358 8.28839 13.472 8.29177 13.5065 8.30208C13.541 8.3124 13.5731 8.32943 13.601 8.3522C13.6289 8.37497 13.652 8.40303 13.669 8.43477C13.686 8.4665 13.6965 8.50129 13.7 8.53712C13.9237 9.16031 14.2085 9.75988 14.5501 10.3271C14.8801 10.9421 16.02 12.9451 15.95 13.8971C16.0869 14.0015 16.2053 14.1283 16.3001 14.2721C16.3701 14.3601 16.43 14.4061 16.51 14.3551C16.5332 14.3416 16.551 14.3204 16.5601 14.2951C16.5801 14.2391 16.54 14.1841 16.51 14.1281C16.2259 13.5325 16.1216 12.867 16.21 12.2131C16.22 11.9911 16.24 11.7371 16.27 11.4641C16.3 11.1911 16.33 10.8951 16.36 10.5851C16.44 9.96512 16.53 9.26212 16.63 8.54112C16.75 7.81512 16.88 7.06112 17.03 6.32112C17.18 5.58112 17.3601 4.84612 17.5601 4.15712C17.7523 3.4957 17.9861 2.84708 18.26 2.21512C18.4522 1.77134 18.6866 1.34706 18.96 0.948117C19.1458 0.673449 19.3756 0.431215 19.64 0.231117C19.8305 0.0863915 20.061 0.00397422 20.3001 -0.00488281C20.5324 -0.000786432 20.757 0.0789027 20.94 0.222117C21.1911 0.419549 21.4046 0.66076 21.57 0.934117C21.8127 1.33957 22.0201 1.76514 22.19 2.20612C22.4322 2.84154 22.6393 3.48986 22.8101 4.14812C23.2735 5.98146 23.6274 7.84074 23.87 9.71612C24.04 11.0161 23.92 11.2161 22.83 11.9361C22.69 12.0361 22.58 12.1261 22.57 12.2271C22.56 12.3611 22.72 12.3981 22.98 12.4031H23.58C23.8487 12.4091 24.1164 12.4385 24.38 12.4911C24.6054 12.5364 24.824 12.6111 25.03 12.7131C25.4038 12.8986 25.7163 13.1878 25.9301 13.5461C26.0432 13.7349 26.1338 13.9362 26.2 14.1461C26.2749 14.3821 26.3318 14.6235 26.37 14.8681C26.411 15.1435 26.4312 15.4217 26.4301 15.7001C26.4339 16.0155 26.4137 16.3307 26.37 16.6431C26.3346 16.9123 26.2845 17.1794 26.22 17.4431C26.1585 17.6666 26.0747 17.8833 25.97 18.0901C25.8075 18.4398 25.5424 18.7317 25.21 18.9271C25.0526 19.0193 24.8798 19.082 24.7 19.1121C24.4987 19.1475 24.2937 19.1569 24.09 19.1401C23.8497 19.1174 23.6121 19.0725 23.38 19.0061C23.0952 18.927 22.8149 18.8329 22.5401 18.7241C21.588 18.3196 20.6628 17.8546 19.77 17.3321L19.62 17.2491C19.57 17.2211 19.53 17.1981 19.48 17.1751C19.4036 17.1368 19.3231 17.1073 19.24 17.0871C19.1746 17.0707 19.1066 17.0676 19.0401 17.0781C18.9865 17.0831 18.9367 17.1077 18.9 17.1471C18.8686 17.1857 18.8478 17.2319 18.84 17.2811C18.8402 17.3449 18.8538 17.4079 18.88 17.4661C18.9157 17.5472 18.9593 17.6245 19.01 17.6971C19.0402 17.7425 19.0736 17.7856 19.11 17.8261C19.14 17.8721 19.18 17.9191 19.22 17.9691C19.39 18.1911 19.5401 18.3901 19.6701 18.5691C19.7856 18.7251 19.8924 18.8873 19.99 19.0551C20.0695 19.1777 20.1397 19.306 20.2 19.4391C20.2461 19.5354 20.283 19.6359 20.3101 19.7391C20.3487 19.8678 20.3452 20.0055 20.3001 20.1321C20.2758 20.2066 20.2263 20.2703 20.1601 20.3121C20.0954 20.3568 20.0186 20.3809 19.94 20.3811C19.8006 20.3779 19.6653 20.3345 19.5501 20.2561C19.4565 20.2012 19.3693 20.1361 19.2901 20.0621C19.1778 19.9647 19.071 19.8612 18.97 19.7521C18.86 19.6271 18.74 19.4791 18.6 19.3031C18.46 19.1271 18.3201 18.9241 18.1601 18.6971C18.1201 18.6421 18.0901 18.5971 18.0501 18.5491C18.0101 18.5011 17.99 18.4611 17.96 18.4201C17.9024 18.3513 17.8389 18.2877 17.77 18.2301C17.7221 18.1853 17.6636 18.1533 17.6 18.1371C17.5513 18.1207 17.4986 18.1207 17.45 18.1371C17.4255 18.1449 17.403 18.1578 17.3841 18.1751C17.3651 18.1923 17.35 18.2135 17.34 18.2371C17.3062 18.291 17.2889 18.3535 17.2901 18.4171C17.2838 18.5019 17.2872 18.5871 17.3001 18.6711C17.3025 18.7209 17.309 18.7705 17.32 18.8191C17.33 18.8701 17.34 18.9251 17.35 18.9811C17.5785 19.955 17.7356 20.9443 17.82 21.9411C17.843 22.2242 17.8464 22.5086 17.83 22.7921C17.82 23.0262 17.7865 23.2587 17.73 23.4861C17.6843 23.6797 17.6066 23.8642 17.5 24.0321C17.4095 24.1853 17.2947 24.3228 17.1601 24.4391C16.8464 24.6767 16.472 24.8209 16.08 24.8551C15.8407 24.8792 15.5998 24.8822 15.36 24.8641C15.0745 24.8412 14.7907 24.8011 14.51 24.7441C13.9053 24.6212 13.3177 24.4254 12.76 24.1611C12.5311 24.0473 12.3105 23.9173 12.1 23.7721C11.9182 23.6421 11.7506 23.4933 11.6 23.3281C11.4618 23.1776 11.3442 23.0095 11.25 22.8281C11.1598 22.6462 11.099 22.4511 11.07 22.2501C11.0315 22.0317 11.0282 21.8086 11.0601 21.5891C11.0914 21.3327 11.1483 21.0801 11.23 20.8351C11.3 20.6271 11.3701 20.4351 11.4201 20.2851C11.5001 20.0491 11.52 19.8961 11.38 19.8591C11.3121 19.8559 11.2443 19.8666 11.1807 19.8905C11.1171 19.9144 11.059 19.951 11.01 19.9981C9.95003 20.7431 9.71 20.7891 8.48 20.2111C6.71299 19.3846 4.99361 18.4598 3.32997 17.4411C2.73607 17.0714 2.16197 16.6709 1.61 16.2411C1.23135 15.948 0.879996 15.6214 0.560075 15.2651C0.347234 15.0321 0.180801 14.7606 0.0699627 14.4651C-0.0159304 14.2575 -0.02294 14.0256 0.0500652 13.8131C0.138658 13.5972 0.292431 13.4143 0.490007 13.2901C0.780905 13.1129 1.0983 12.9833 1.43007 12.9061C1.91559 12.7871 2.41097 12.7128 2.91005 12.6841C3.6227 12.6399 4.33742 12.6399 5.05007 12.6841C5.79007 12.7261 6.57 12.8001 7.36 12.9061C8.15 13.0121 8.92007 13.1371 9.68007 13.2711C10.4201 13.4051 11.15 13.5531 11.78 13.6871C12.1 13.7561 12.4001 13.8261 12.6801 13.8871C12.9601 13.9481 13.21 14.0161 13.44 14.0771C14.108 14.2068 14.7275 14.5182 15.23 14.9771C15.2657 15.0281 15.3192 15.0638 15.38 15.0771C15.4051 15.0728 15.4289 15.0633 15.45 15.0491C15.52 14.9931 15.5001 14.9241 15.4301 14.8321C15.3275 14.7009 15.2434 14.5562 15.1801 14.4021C14.2201 14.1521 12.62 12.4641 12.11 11.9601C11.662 11.4603 11.1626 11.0092 10.62 10.6141C10.5872 10.601 10.5574 10.5813 10.5325 10.5563C10.5075 10.5312 10.488 10.5014 10.4749 10.4686C10.4618 10.4358 10.4554 10.4007 10.4563 10.3653C10.4572 10.33 10.4653 10.2952 10.48 10.2631C10.512 10.197 10.5687 10.1459 10.6378 10.1209C10.7069 10.0959 10.783 10.0988 10.85 10.1291C11.1049 10.2584 11.3378 10.4272 11.5401 10.6291C11.5933 10.67 11.6433 10.7148 11.69 10.7631C11.73 10.8051 11.78 10.8511 11.83 10.9021C11.93 11.0021 12.03 11.0961 12.12 11.1931C12.21 11.2901 12.3201 11.3931 12.4201 11.4931C12.4401 11.5161 12.47 11.5391 12.49 11.5671C12.5148 11.5871 12.5383 11.6089 12.5601 11.6321L12.6801 11.7571C12.8501 11.9281 13.03 12.1091 13.22 12.2891C13.8121 12.9593 14.5331 13.5035 15.34 13.8891L15.37 13.8661L15.39 13.8481L15.4 13.8841Z" clip-rule="evenodd" fill-rule="evenodd"></path>
</g>
<defs>
<clipPath id="clip0_1378_2986">
<rect fill="white" height="51.999" width="170"></rect>
</clipPath>
</defs>
</svg>
