<svg width="100" height="100" viewBox="0 0 100 100" fill="none" xmlns="http://www.w3.org/2000/svg">
<g clip-path="url(#clip0_1543_1240)">
<mask id="mask0_1543_1240" style="mask-type:luminance" maskUnits="userSpaceOnUse" x="15" y="10" width="71" height="80">
<path d="M85.834 10H15V90H85.834V10Z" fill="white"/>
</mask>
<g mask="url(#mask0_1543_1240)">
<path d="M50.4148 20.492C50.7331 20.492 51.0383 20.3656 51.2634 20.1406C51.4884 19.9155 51.6148 19.6103 51.6148 19.292V11.292C51.6148 10.9738 51.4884 10.6686 51.2634 10.4435C51.0383 10.2185 50.7331 10.092 50.4148 10.092C50.0966 10.092 49.7914 10.2185 49.5663 10.4435C49.3413 10.6686 49.2148 10.9738 49.2148 11.292V19.292C49.2148 19.6103 49.3413 19.9155 49.5663 20.1406C49.7914 20.3656 50.0966 20.492 50.4148 20.492Z" fill="#121212"/>
<path d="M31.0317 29.0919C31.2679 29.09 31.4982 29.0183 31.6939 28.886C31.8895 28.7537 32.0418 28.5666 32.1316 28.3482C32.2214 28.1297 32.2447 27.8897 32.1987 27.658C32.1526 27.4263 32.0392 27.2134 31.8727 27.0459L26.5177 21.6959C26.2911 21.4798 25.989 21.3608 25.6758 21.3643C25.3627 21.3679 25.0634 21.4937 24.8417 21.7149C24.6221 21.9504 24.5 22.2604 24.5 22.5824C24.5 22.9044 24.6221 23.2144 24.8417 23.4499L30.2247 28.7499C30.3269 28.8597 30.4507 28.9471 30.5885 29.0065C30.7262 29.0659 30.8747 29.096 31.0247 29.0949L31.0317 29.0919Z" fill="#121212"/>
<path d="M24.3016 44.2161H16.3016C15.9833 44.2161 15.6781 44.3425 15.453 44.5675C15.228 44.7926 15.1016 45.0978 15.1016 45.4161C15.1016 45.7343 15.228 46.0395 15.453 46.2646C15.6781 46.4896 15.9833 46.6161 16.3016 46.6161H24.3016C24.4591 46.6161 24.6152 46.585 24.7608 46.5247C24.9064 46.4644 25.0387 46.376 25.1501 46.2646C25.2615 46.1532 25.3499 46.0209 25.4102 45.8753C25.4705 45.7297 25.5016 45.5736 25.5016 45.4161C25.5016 45.2585 25.4705 45.1024 25.4102 44.9568C25.3499 44.8113 25.2615 44.679 25.1501 44.5675C25.0387 44.4561 24.9064 44.3677 24.7608 44.3074C24.6152 44.2471 24.4591 44.2161 24.3016 44.2161Z" fill="#121212"/>
<path d="M57.2164 74.0439H43.6164C42.6749 74.0439 41.7719 74.418 41.1062 75.0837C40.4404 75.7495 40.0664 76.6524 40.0664 77.5939C40.0664 78.5355 40.4404 79.4384 41.1062 80.1042C41.7719 80.7699 42.6749 81.1439 43.6164 81.1439H57.2164C58.1579 81.1439 59.0609 80.7699 59.7266 80.1042C60.3924 79.4384 60.7664 78.5355 60.7664 77.5939C60.7664 76.6524 60.3924 75.7495 59.7266 75.0837C59.0609 74.418 58.1579 74.0439 57.2164 74.0439ZM58.3684 77.5909C58.3687 77.7424 58.3391 77.8924 58.2813 78.0324C58.2235 78.1724 58.1387 78.2996 58.0317 78.4068C57.9247 78.514 57.7976 78.599 57.6577 78.6571C57.5178 78.7151 57.3679 78.7449 57.2164 78.7449H43.6164C43.3106 78.7449 43.0173 78.6235 42.8011 78.4072C42.5849 78.191 42.4634 77.8977 42.4634 77.5919C42.4634 77.2862 42.5849 76.9929 42.8011 76.7766C43.0173 76.5604 43.3106 76.4389 43.6164 76.4389H57.2164C57.5218 76.4395 57.8145 76.561 58.0304 76.7769C58.2463 76.9929 58.3679 77.2856 58.3684 77.5909Z" fill="#121212"/>
<path d="M76.532 44.2161C76.2138 44.2161 75.9085 44.3425 75.6835 44.5675C75.4585 44.7926 75.332 45.0978 75.332 45.4161C75.332 45.7343 75.4585 46.0395 75.6835 46.2646C75.9085 46.4896 76.2138 46.6161 76.532 46.6161H84.532C84.6896 46.6161 84.8457 46.585 84.9913 46.5247C85.1368 46.4644 85.2691 46.376 85.3806 46.2646C85.492 46.1532 85.5804 46.0209 85.6407 45.8753C85.701 45.7297 85.732 45.5736 85.732 45.4161C85.732 45.2585 85.701 45.1024 85.6407 44.9568C85.5804 44.8113 85.492 44.679 85.3806 44.5675C85.2691 44.4561 85.1368 44.3677 84.9913 44.3074C84.8457 44.2471 84.6896 44.2161 84.532 44.2161" fill="#121212"/>
<path d="M76.3289 21.7741C75.1449 20.8141 74.6049 21.8161 74.0289 22.3161L69.0799 27.2341C68.8736 27.4489 68.7601 27.7363 68.7639 28.0341C68.7589 28.2714 68.8248 28.5048 68.9532 28.7044C69.0815 28.904 69.2665 29.0609 69.4844 29.1548C69.7024 29.2488 69.9434 29.2756 70.1767 29.2318C70.41 29.188 70.6249 29.0757 70.7939 28.9091L76.3289 23.4211C76.5385 23.1985 76.6552 22.9043 76.6552 22.5986C76.6552 22.2929 76.5385 21.9987 76.3289 21.7761" fill="#121212"/>
<path d="M53.6886 82.9041H47.4426C46.5011 82.9041 45.5981 83.2781 44.9324 83.9438C44.2666 84.6096 43.8926 85.5125 43.8926 86.4541C43.8926 87.3956 44.2666 88.2985 44.9324 88.9643C45.5981 89.63 46.5011 90.0041 47.4426 90.0041H53.6876C54.6291 90.0041 55.5321 89.63 56.1978 88.9643C56.8636 88.2985 57.2376 87.3956 57.2376 86.4541C57.2376 85.5125 56.8636 84.6096 56.1978 83.9438C55.5321 83.2781 54.6301 82.9041 53.6886 82.9041ZM54.8376 86.4481C54.8378 86.5995 54.8082 86.7495 54.7505 86.8895C54.6927 87.0295 54.6079 87.1567 54.5009 87.2639C54.3939 87.3711 54.2668 87.4562 54.1269 87.5142C53.987 87.5722 53.837 87.6021 53.6856 87.6021H47.4496C47.1438 87.6021 46.8505 87.4806 46.6343 87.2644C46.4181 87.0481 46.2966 86.7548 46.2966 86.4491C46.2966 86.1433 46.4181 85.85 46.6343 85.6338C46.8505 85.4175 47.1438 85.2961 47.4496 85.2961H53.6856C53.9909 85.2966 54.2837 85.4181 54.4996 85.634C54.7155 85.85 54.8371 86.1427 54.8376 86.4481Z" fill="#121212"/>
<path d="M70.0621 42.9482C69.6017 37.9631 67.1854 33.3633 63.3421 30.1552C59.691 27.0979 55.0841 25.4169 50.3221 25.4042C45.332 25.3873 40.5385 27.3476 36.9901 30.8562C33.41 34.3271 31.2802 39.027 31.0306 44.0071C30.7809 48.9873 32.4301 53.8766 35.6451 57.6882C38.4825 60.9861 40.0511 65.1876 40.0691 69.5382C40.0733 70.1215 40.308 70.6795 40.722 71.0905C41.136 71.5015 41.6957 71.7322 42.2791 71.7322H58.8791V71.6892L58.8891 71.7292C60.9991 71.6292 61.0801 69.8632 61.1511 68.3012C61.1554 67.7496 61.215 67.1998 61.3291 66.6602V66.6432C61.9547 63.2554 63.4515 60.0889 65.6721 57.4552C67.3342 55.4534 68.5789 53.1392 69.3328 50.6489C70.0868 48.1587 70.3347 45.5427 70.0621 42.9552V42.9482ZM51.6121 51.9732H56.0461C56.3643 51.9732 56.6696 51.8467 56.8946 51.6217C57.1197 51.3966 57.2461 51.0914 57.2461 50.7732C57.2461 50.4549 57.1197 50.1497 56.8946 49.9246C56.6696 49.6996 56.3643 49.5732 56.0461 49.5732H45.1001C44.7818 49.5732 44.4766 49.6996 44.2516 49.9246C44.0265 50.1497 43.9001 50.4549 43.9001 50.7732C43.9001 51.0914 44.0265 51.3966 44.2516 51.6217C44.4766 51.8467 44.7818 51.9732 45.1001 51.9732H49.2141V69.3172L42.4571 69.3062C42.3855 64.4659 40.6186 59.804 37.4641 56.1322C35.3371 53.6308 33.9706 50.5729 33.5259 47.3198C33.0811 44.0666 33.5769 40.7541 34.9545 37.7737C36.3321 34.7933 38.5339 32.2694 41.3 30.5003C44.0661 28.7312 47.2807 27.7908 50.5641 27.7902C50.7831 27.7902 51.0121 27.7902 51.2411 27.8042C54.5394 27.8916 57.7366 28.9616 60.4231 30.8772C62.9438 32.7104 64.9389 35.1733 66.2089 38.0196C67.479 40.8659 67.9794 43.9958 67.6601 47.0962C67.2908 50.3581 65.9553 53.4354 63.8251 55.9332C60.641 59.6898 58.8185 64.4114 58.6531 69.3332L51.6121 69.3252V51.9732Z" fill="#121212"/>
</g>
</g>
<defs>
<clipPath id="clip0_1543_1240">
<rect width="70.834" height="80" fill="white" transform="translate(15 10)"/>
</clipPath>
</defs>
</svg>
