<svg width="100" height="100" viewBox="0 0 100 100" fill="none" xmlns="http://www.w3.org/2000/svg">
<g clip-path="url(#clip0_1543_1174)">
<path d="M94.905 56.6569C94.9283 56.6214 94.949 56.5843 94.967 56.5459C94.976 56.5289 94.987 56.5119 94.994 56.4939C95.0148 56.4428 95.0309 56.3899 95.042 56.3359C95.042 56.3229 95.042 56.3099 95.049 56.2959C95.0575 56.2447 95.0615 56.1928 95.061 56.1409C95.061 56.1239 95.061 56.1069 95.055 56.0899C95.0523 56.0475 95.0466 56.0054 95.038 55.9639C95.033 55.9419 95.024 55.9209 95.018 55.8999C95.0075 55.8658 94.9948 55.8324 94.98 55.7999C94.97 55.7769 94.956 55.7549 94.943 55.7329C94.9252 55.7013 94.9059 55.6705 94.885 55.6409C94.87 55.6199 94.854 55.6009 94.837 55.5809C94.8106 55.5507 94.7826 55.522 94.753 55.4949C94.742 55.4849 94.735 55.4729 94.723 55.4639C94.711 55.4549 94.705 55.4529 94.698 55.4469C94.6645 55.4208 94.6294 55.3968 94.593 55.3749C94.571 55.3619 94.551 55.3469 94.528 55.3349C94.4922 55.317 94.4555 55.301 94.418 55.2869C94.392 55.2769 94.367 55.2649 94.34 55.2559H94.329L65.777 46.4719V14.9719C65.7583 14.6984 65.6321 14.4434 65.426 14.2626C65.2199 14.0818 64.9506 13.9899 64.677 14.0069H35.388C35.1144 13.9899 34.8451 14.0818 34.639 14.2626C34.433 14.4434 34.3068 14.6984 34.288 14.9719V46.4719L5.73601 55.2479H5.72501C5.69801 55.2569 5.67301 55.2689 5.64701 55.2789C5.62101 55.2889 5.57301 55.3089 5.53701 55.3269C5.50101 55.3449 5.49401 55.3529 5.47201 55.3659C5.43515 55.3876 5.39975 55.4116 5.36601 55.4379C5.35701 55.4439 5.34801 55.4489 5.34001 55.4549C5.33201 55.4609 5.32001 55.4759 5.31001 55.4859C5.28019 55.5127 5.25213 55.5414 5.22602 55.5719C5.20902 55.5919 5.19301 55.6119 5.17801 55.6319C5.15679 55.661 5.13742 55.6914 5.12001 55.7229C5.10801 55.7449 5.09401 55.7669 5.08301 55.7899C5.06824 55.8225 5.05522 55.8559 5.04401 55.8899C5.03701 55.9109 5.02801 55.9329 5.02401 55.9539C5.0151 55.9954 5.00909 56.0375 5.00601 56.0799C5.00601 56.0959 5.00101 56.1129 5.00001 56.1309C4.99976 56.1828 5.00412 56.2347 5.01301 56.2859C5.01301 56.2989 5.01301 56.3119 5.02001 56.3259C5.03127 56.3799 5.04733 56.4328 5.06801 56.4839C5.07612 56.5017 5.08513 56.519 5.09501 56.5359C5.11364 56.5742 5.13469 56.6113 5.15801 56.6469C5.17001 56.6649 5.18601 56.6809 5.20001 56.6989C5.22598 56.7323 5.25403 56.764 5.28401 56.7939C5.29101 56.8009 5.29601 56.8079 5.30201 56.8149C10.0902 61.1025 16.2219 63.5892 22.644 63.8479C22.8015 63.8863 22.9651 63.8924 23.125 63.8659C23.425 63.8759 23.732 63.8819 24.036 63.8819H76.026C82.9306 63.9363 89.6086 61.4205 94.761 56.8239C94.768 56.8179 94.773 56.8099 94.779 56.8029C94.809 56.773 94.837 56.7413 94.863 56.7079C94.877 56.6899 94.892 56.6719 94.906 56.6549L94.905 56.6569ZM34.853 57.1249V61.9479H30.54V57.1249H34.853ZM37.053 57.1249H41.366V61.9479H37.053V57.1249ZM43.563 57.1249H47.876V61.9479H43.564L43.563 57.1249ZM50.073 57.1249H54.386V61.9479H50.066L50.073 57.1249ZM56.583 57.1249H60.896V61.9479H56.583V57.1249ZM63.093 57.1249H67.406V61.9479H63.094L63.093 57.1249ZM69.603 57.1249H73.916V61.9479H69.604L69.603 57.1249ZM76.113 57.1249H91.186C86.7882 60.2694 81.5153 61.9561 76.109 61.9479L76.113 57.1249ZM63.583 15.9309V21.7239H59.183C59.0455 21.7056 58.9056 21.7169 58.7728 21.7571C58.64 21.7972 58.5173 21.8653 58.4129 21.9567C58.3085 22.0481 58.2249 22.1608 58.1676 22.2871C58.1103 22.4135 58.0806 22.5506 58.0806 22.6894C58.0806 22.8281 58.1103 22.9653 58.1676 23.0917C58.2249 23.218 58.3085 23.3307 58.4129 23.4221C58.5173 23.5135 58.64 23.5816 58.7728 23.6217C58.9056 23.6619 59.0455 23.6732 59.183 23.6549H63.583V46.1819H36.485V23.6549H54.605C54.7426 23.6732 54.8824 23.6619 55.0152 23.6217C55.148 23.5816 55.2707 23.5135 55.3751 23.4221C55.4795 23.3307 55.5632 23.218 55.6205 23.0917C55.6778 22.9653 55.7074 22.8281 55.7074 22.6894C55.7074 22.5506 55.6778 22.4135 55.6205 22.2871C55.5632 22.1608 55.4795 22.0481 55.3751 21.9567C55.2707 21.8653 55.148 21.7972 55.0152 21.7571C54.8824 21.7169 54.7426 21.7056 54.605 21.7239H36.485V15.9309H63.583ZM35.583 48.1139H64.498L87.512 55.1939H12.566L35.583 48.1139ZM21.843 57.1249V61.8589C17.175 61.492 12.6963 59.8549 8.89201 57.1249H21.843ZM24.043 61.9519V57.1249H28.356V61.9479H24.03L24.043 61.9519Z" fill="#121212"/>
<path d="M34.209 84.2989C34.2362 84.6264 34.3855 84.9317 34.6273 85.1543C34.8692 85.3769 35.1858 85.5004 35.5145 85.5004C35.8431 85.5004 36.1598 85.3769 36.4016 85.1543C36.6434 84.9317 36.7928 84.6264 36.82 84.2989C36.8382 83.8036 36.9723 83.3194 37.2114 82.8853C37.4505 82.4511 37.7881 82.079 38.197 81.7989C38.8491 81.3202 39.3793 80.6948 39.7448 79.9731C40.1103 79.2514 40.3008 78.4538 40.3008 77.6449C40.3008 76.836 40.1103 76.0384 39.7448 75.3167C39.3793 74.5951 38.8491 73.9696 38.197 73.4909C37.7754 73.2249 37.428 72.8564 37.1873 72.4198C36.9466 71.9833 36.8204 71.4929 36.8204 70.9944C36.8204 70.4959 36.9466 70.0055 37.1873 69.5689C37.428 69.1324 37.7754 68.7639 38.197 68.4979C38.3168 68.3901 38.4121 68.2579 38.4764 68.1102C38.5408 67.9624 38.5727 67.8026 38.57 67.6415C38.5674 67.4804 38.5302 67.3217 38.461 67.1762C38.3918 67.0307 38.2923 66.9017 38.169 66.7979C37.9089 66.5751 37.5756 66.4563 37.2332 66.4642C36.8909 66.4722 36.5635 66.6063 36.314 66.8409C35.6619 67.3197 35.1316 67.9453 34.7661 68.667C34.4006 69.3887 34.2102 70.1864 34.2102 70.9954C34.2102 71.8044 34.4006 72.6021 34.7661 73.3238C35.1316 74.0455 35.6619 74.6711 36.314 75.1499C36.7356 75.4158 37.083 75.7842 37.3237 76.2206C37.5644 76.6571 37.6907 77.1475 37.6907 77.6459C37.6907 78.1444 37.5644 78.6347 37.3237 79.0711C37.083 79.5076 36.7356 79.876 36.314 80.1419C35.6746 80.6323 35.1538 81.2603 34.7903 81.9794C34.4268 82.6985 34.2298 83.4903 34.214 84.2959L34.209 84.2989Z" fill="#121212"/>
<path d="M41.5586 84.2989C41.5858 84.6264 41.7351 84.9317 41.977 85.1543C42.2188 85.3769 42.5355 85.5004 42.8641 85.5004C43.1928 85.5004 43.5094 85.3769 43.7512 85.1543C43.993 84.9317 44.1424 84.6264 44.1696 84.2989C44.1878 83.8036 44.3219 83.3194 44.561 82.8853C44.8002 82.4511 45.1377 82.079 45.5466 81.7989C46.1987 81.3202 46.729 80.6948 47.0945 79.9731C47.4599 79.2514 47.6504 78.4538 47.6504 77.6449C47.6504 76.836 47.4599 76.0384 47.0945 75.3167C46.729 74.5951 46.1987 73.9696 45.5466 73.4909C45.125 73.2249 44.7776 72.8564 44.5369 72.4198C44.2962 71.9833 44.17 71.4929 44.17 70.9944C44.17 70.4959 44.2962 70.0055 44.5369 69.5689C44.7776 69.1324 45.125 68.7639 45.5466 68.4979C45.6662 68.39 45.7614 68.2578 45.8257 68.1101C45.8899 67.9624 45.9218 67.8026 45.9191 67.6415C45.9165 67.4805 45.8794 67.3218 45.8103 67.1763C45.7412 67.0308 45.6417 66.9018 45.5186 66.7979C45.2585 66.5751 44.9252 66.4563 44.5829 66.4642C44.2405 66.4722 43.9131 66.6063 43.6636 66.8409C43.0115 67.3197 42.4812 67.9453 42.1157 68.667C41.7502 69.3887 41.5598 70.1864 41.5598 70.9954C41.5598 71.8044 41.7502 72.6021 42.1157 73.3238C42.4812 74.0455 43.0115 74.6711 43.6636 75.1499C44.0852 75.4158 44.4326 75.7842 44.6733 76.2206C44.914 76.6571 45.0403 77.1475 45.0403 77.6459C45.0403 78.1444 44.914 78.6347 44.6733 79.0711C44.4326 79.5076 44.0852 79.876 43.6636 80.1419C43.0229 80.6321 42.501 81.2604 42.1365 81.9801C41.7721 82.6998 41.5746 83.4924 41.5586 84.2989Z" fill="#121212"/>
<path d="M48.9082 84.308C48.9381 84.6335 49.0886 84.9362 49.3301 85.1565C49.5716 85.3769 49.8868 85.499 50.2137 85.499C50.5406 85.499 50.8558 85.3769 51.0973 85.1565C51.3388 84.9362 51.4893 84.6335 51.5192 84.308C51.5382 83.8146 51.6727 83.3326 51.9118 82.9007C52.151 82.4687 52.4881 82.0989 52.8962 81.821C53.5481 81.3457 54.0784 80.7232 54.4441 80.0041C54.8097 79.285 55.0003 78.4897 55.0003 77.683C55.0003 76.8763 54.8097 76.0809 54.4441 75.3618C54.0784 74.6427 53.5481 74.0202 52.8962 73.545C52.4883 73.2669 52.1512 72.8971 51.912 72.4652C51.6729 72.0333 51.5383 71.5513 51.5192 71.058C51.5279 70.5995 51.6431 70.1493 51.8557 69.743C52.0683 69.3367 52.3725 68.9855 52.7442 68.717C52.8632 68.6091 52.9577 68.4769 53.0212 68.3294C53.0848 68.1818 53.1159 68.0224 53.1125 67.8617C53.1091 67.7011 53.0712 67.5431 53.0015 67.3984C52.9317 67.2537 52.8317 67.1257 52.7082 67.023C52.4473 66.8018 52.1142 66.6844 51.7722 66.6931C51.4303 66.7017 51.1036 66.8359 50.8542 67.07C50.2537 67.5477 49.7673 68.1534 49.4307 68.843C49.094 69.5326 48.9155 70.2886 48.9082 71.056C48.9244 71.8594 49.1216 72.6488 49.4852 73.3654C49.8488 74.0821 50.3694 74.7074 51.0082 75.195C51.4295 75.4587 51.7769 75.8252 52.0177 76.2601C52.2585 76.6949 52.3848 77.1839 52.3848 77.681C52.3848 78.178 52.2585 78.667 52.0177 79.1018C51.7769 79.5367 51.4295 79.9032 51.0082 80.167C50.3694 80.6542 49.8487 81.2794 49.4851 81.9959C49.1215 82.7123 48.9243 83.5017 48.9082 84.305V84.308Z" fill="#121212"/>
<path d="M56.2578 84.2989C56.285 84.6264 56.4344 84.9317 56.6762 85.1543C56.918 85.3769 57.2347 85.5004 57.5633 85.5004C57.892 85.5004 58.2086 85.3769 58.4504 85.1543C58.6923 84.9317 58.8416 84.6264 58.8688 84.2989C58.887 83.8036 59.0211 83.3194 59.2603 82.8853C59.4994 82.4511 59.8369 82.079 60.2458 81.7989C60.8979 81.3202 61.4282 80.6948 61.7937 79.9731C62.1592 79.2514 62.3496 78.4538 62.3496 77.6449C62.3496 76.836 62.1592 76.0384 61.7937 75.3167C61.4282 74.5951 60.8979 73.9696 60.2458 73.4909C59.8242 73.2249 59.4769 72.8564 59.2361 72.4198C58.9954 71.9833 58.8692 71.4929 58.8692 70.9944C58.8692 70.4959 58.9954 70.0055 59.2361 69.5689C59.4769 69.1324 59.8242 68.7639 60.2458 68.4979C60.3656 68.3901 60.4609 68.2579 60.5252 68.1102C60.5896 67.9624 60.6215 67.8026 60.6189 67.6415C60.6162 67.4804 60.579 67.3217 60.5099 67.1762C60.4407 67.0307 60.3411 66.9017 60.2178 66.7979C59.9577 66.5751 59.6245 66.4563 59.2821 66.4642C58.9397 66.4722 58.6123 66.6063 58.3628 66.8409C57.7107 67.3197 57.1805 67.9453 56.815 68.667C56.4495 69.3887 56.259 70.1864 56.259 70.9954C56.259 71.8044 56.4495 72.6021 56.815 73.3238C57.1805 74.0455 57.7107 74.6711 58.3628 75.1499C58.7844 75.4158 59.1318 75.7842 59.3725 76.2206C59.6133 76.6571 59.7395 77.1475 59.7395 77.6459C59.7395 78.1444 59.6133 78.6347 59.3725 79.0711C59.1318 79.5076 58.7844 79.876 58.3628 80.1419C57.7221 80.6321 57.2002 81.2604 56.8358 81.9801C56.4713 82.6998 56.2738 83.4924 56.2578 84.2989Z" fill="#121212"/>
<path d="M63.6074 84.2989C63.6346 84.6264 63.784 84.9317 64.0258 85.1543C64.2676 85.3769 64.5843 85.5004 64.9129 85.5004C65.2416 85.5004 65.5582 85.3769 65.8 85.1543C66.0419 84.9317 66.1912 84.6264 66.2184 84.2989C66.2367 83.8036 66.3707 83.3194 66.6099 82.8853C66.849 82.4511 67.1865 82.079 67.5954 81.7989C68.2475 81.3202 68.7778 80.6948 69.1433 79.9731C69.5088 79.2514 69.6992 78.4538 69.6992 77.6449C69.6992 76.836 69.5088 76.0384 69.1433 75.3167C68.7778 74.5951 68.2475 73.9696 67.5954 73.4909C67.1738 73.2249 66.8265 72.8564 66.5858 72.4198C66.345 71.9833 66.2188 71.4929 66.2188 70.9944C66.2188 70.4959 66.345 70.0055 66.5858 69.5689C66.8265 69.1324 67.1738 68.7639 67.5954 68.4979C67.7152 68.3901 67.8105 68.2579 67.8748 68.1102C67.9392 67.9624 67.9711 67.8026 67.9685 67.6415C67.9658 67.4804 67.9287 67.3217 67.8595 67.1762C67.7903 67.0307 67.6907 66.9017 67.5674 66.7979C67.3073 66.5751 66.9741 66.4563 66.6317 66.4642C66.2893 66.4722 65.9619 66.6063 65.7124 66.8409C65.0603 67.3197 64.5301 67.9453 64.1646 68.667C63.7991 69.3887 63.6086 70.1864 63.6086 70.9954C63.6086 71.8044 63.7991 72.6021 64.1646 73.3238C64.5301 74.0455 65.0603 74.6711 65.7124 75.1499C66.134 75.4158 66.4814 75.7842 66.7221 76.2206C66.9629 76.6571 67.0891 77.1475 67.0891 77.6459C67.0891 78.1444 66.9629 78.6347 66.7221 79.0711C66.4814 79.5076 66.134 79.876 65.7124 80.1419C65.0718 80.6321 64.5498 81.2604 64.1854 81.9801C63.8209 82.6998 63.6234 83.4924 63.6074 84.2989Z" fill="#121212"/>
</g>
<defs>
<clipPath id="clip0_1543_1174">
<rect width="90.063" height="71.499" fill="white" transform="translate(5 14)"/>
</clipPath>
</defs>
</svg>
