<svg width="100" height="100" viewBox="0 0 100 100" fill="none" xmlns="http://www.w3.org/2000/svg">
<g clip-path="url(#clip0_1543_1180)">
<path d="M30.7461 59.4938L30.746 59.3439H30.5961H28.9961H28.8461V59.4939V66.9229V67.0729H28.9961H35.9391H36.0891V66.9229V65.3229V65.1729H35.9391H30.75L30.7461 59.4938Z" fill="#121212" stroke="black" stroke-width="0.3"/>
<path d="M62.1191 65.1671H61.9691V65.3171V66.9171V67.0671H62.1191H70.3591H70.5091V66.9171V58.9851V58.8351H70.3591H68.7591H68.6092L68.6091 58.985L68.6052 65.1671H62.1191Z" fill="#121212" stroke="black" stroke-width="0.3"/>
<path d="M70.3424 55.01L70.4273 54.8866L70.3041 54.8015L68.9841 53.8895L68.8605 53.8041L68.7753 53.9279C66.6441 57.0244 63.792 59.5563 60.4647 61.3054C57.1375 63.0545 53.4348 63.9685 49.6758 63.9685C45.9168 63.9685 42.2142 63.0545 38.8869 61.3054C35.5597 59.5563 32.7076 57.0244 30.5764 53.9279L30.4912 53.8041L30.3675 53.8895L29.0475 54.8015L28.9244 54.8866L29.0093 55.01C31.3154 58.3602 34.4015 61.0996 38.0017 62.992C41.6018 64.8844 45.6081 65.8732 49.6753 65.8732C53.7425 65.8732 57.7488 64.8844 61.349 62.992C64.9491 61.0996 68.0362 58.3602 70.3424 55.01Z" fill="#121212" stroke="black" stroke-width="0.3"/>
<path d="M49.6748 55.432H49.6749C52.7384 55.432 55.733 54.5236 58.2802 52.8216C60.8273 51.1197 62.8126 48.7006 63.9849 45.8704C65.1572 43.0401 65.464 39.9258 64.8663 36.9213C64.2687 33.9167 62.7935 31.1568 60.6273 28.9906C58.4611 26.8245 55.7013 25.3493 52.6967 24.7516C49.6921 24.154 46.5778 24.4607 43.7476 25.633C40.9173 26.8054 38.4983 28.7906 36.7963 31.3378C35.0943 33.8849 34.1859 36.8796 34.1859 39.943L34.1859 39.9432C34.1905 44.0497 35.8238 47.9867 38.7275 50.8904C41.6313 53.7942 45.5683 55.4275 49.6748 55.432ZM38.9174 31.676H48.7249V34.381H37.2866C37.723 33.4191 38.2703 32.5112 38.9174 31.676ZM36.1405 38.991C36.2021 38.076 36.3568 37.1697 36.6022 36.286H48.7249V38.991H36.1405ZM50.6249 29.772V26.4088C53.5984 26.6153 56.4182 27.7989 58.6466 29.772H50.6249ZM50.6268 34.38L50.625 31.675H60.4287C61.0762 32.5103 61.624 33.4181 62.0611 34.38H50.6268ZM50.6268 38.99L50.625 36.285H62.7454C62.9909 37.1687 63.1457 38.075 63.2074 38.99H50.6268ZM50.6268 43.6L50.625 40.895H63.2074C63.1457 41.81 62.9909 42.7163 62.7454 43.6H50.6268ZM50.6268 48.21L50.625 45.505H62.0612C61.6243 46.467 61.0765 47.3749 60.4287 48.21H50.6268ZM50.6249 50.115H58.6466C56.4182 52.0881 53.5984 53.2717 50.6249 53.4782V50.115ZM48.7221 50.114L48.7248 53.4782C45.7502 53.2721 42.9293 52.088 40.7002 50.114H48.7221ZM40.7032 29.772C42.9317 27.7989 45.7514 26.6152 48.7249 26.4087V29.772H40.7032ZM36.6025 43.601C36.357 42.7173 36.2022 41.811 36.1405 40.896H48.7249V43.601H36.6025ZM38.9182 48.214C38.2707 47.3787 37.7229 46.4708 37.2857 45.5089L48.7249 45.506V48.214H38.9182Z" fill="#121212" stroke="black" stroke-width="0.3"/>
<path d="M64.577 84.715V82.999H68.1001H68.2022L68.2396 82.9039L72.5361 71.9876C73.3548 71.8286 74.0958 71.3949 74.6356 70.7569C75.1938 70.0972 75.501 69.2615 75.503 68.3973V68.397V17.876C75.5028 16.9032 75.1165 15.9702 74.429 15.282C73.7415 14.5937 72.809 14.2064 71.8363 14.205H71.836H64.2132L66.0249 11.0751L66.1552 10.85H65.8951H33.456H33.1956L33.3263 11.0753L35.1416 14.205H27.516L27.5159 14.205C26.5434 14.2061 25.6112 14.5929 24.9236 15.2805C24.2359 15.9681 23.8492 16.9004 23.848 17.8728V17.873L23.848 68.398L23.848 68.3984C23.8501 69.2627 24.1575 70.0985 24.7159 70.7582C25.2559 71.3962 25.9971 71.8298 26.8161 71.9886L31.1125 82.9039L31.1499 82.999H31.252H34.775L34.775 84.716L34.775 84.7162C34.7762 85.6265 35.1383 86.4993 35.782 87.143C36.4257 87.7868 37.2985 88.1489 38.2089 88.15H38.209H38.3951H38.3952C39.3056 88.1489 40.1784 87.7868 40.8221 87.143C41.4658 86.4993 41.8279 85.6265 41.829 84.7162V84.716V83H57.522V84.716V84.7161C57.5229 85.6266 57.8849 86.4995 58.5287 87.1433C59.1725 87.7871 60.0454 88.1492 60.9559 88.15L61.0178 88.1501L61.0188 88.149H61.1431H61.1432C62.0536 88.1479 62.9264 87.7858 63.5701 87.142C64.2138 86.4983 64.5759 85.6255 64.577 84.7152V84.715ZM67.885 16.109V40.776C67.885 45.6045 65.9669 50.2353 62.5526 53.6496C59.1383 57.0639 54.5076 58.982 49.679 58.982C44.8505 58.982 40.2197 57.0639 36.8055 53.6496C33.3912 50.2353 31.473 45.6045 31.473 40.776V40.776L31.4681 16.109H36.2496L38.7753 20.4633L38.8186 20.538H38.905H60.461H60.5475L60.5909 20.4632L63.1115 16.109H67.885ZM62.673 84.7148C62.6726 85.1205 62.5112 85.5094 62.2243 85.7963C61.9375 86.0832 61.5486 86.2445 61.1429 86.245H60.9572C60.5515 86.2445 60.1626 86.0832 59.8758 85.7963C59.5889 85.5094 59.4275 85.1205 59.427 84.7148V82.999H62.673V84.7148ZM36.5025 12.755L62.8509 12.754L59.4466 18.634H39.9134L36.5025 12.755ZM25.7521 68.3978L25.7521 17.8762C25.7525 17.4084 25.9386 16.96 26.2693 16.6292C26.6 16.2985 27.0485 16.1125 27.5162 16.112H29.566V40.776C29.566 46.1095 31.6848 51.2246 35.4561 54.9959C39.2275 58.7673 44.3425 60.886 49.676 60.886C55.0095 60.886 60.1246 58.7673 63.896 54.9959C67.6673 51.2246 69.786 46.1095 69.786 40.776V16.109H71.8359C72.3036 16.1095 72.7521 16.2955 73.0828 16.6262C73.4135 16.957 73.5996 17.4054 73.6 17.8732V68.3978C73.5993 68.863 73.4149 69.3092 73.087 69.6392C72.7593 69.969 72.3147 70.1561 71.8498 70.16H27.5033C27.0384 70.1561 26.5938 69.969 26.2661 69.6392C25.938 69.309 25.7528 68.8629 25.7521 68.3979C25.7521 68.3978 25.7521 68.3978 25.7521 68.3978ZM39.925 84.7148C39.9246 85.1205 39.7632 85.5094 39.4763 85.7963C39.1895 86.0832 38.8006 86.2445 38.3949 86.245H38.2092C37.8035 86.2445 37.4146 86.0832 37.1277 85.7963C36.8409 85.5094 36.6795 85.1205 36.679 84.7148V82.999H39.925V84.7148ZM41.675 81.095H32.4422L28.8883 72.065H70.4528L66.8989 81.095H41.675Z" fill="#121212" stroke="black" stroke-width="0.3"/>
<path d="M55.1797 14.7411H55.0297V14.8911V16.4911V16.6411H55.1797H57.2967H57.4467V16.4911V14.8911V14.7411H57.2967H55.1797Z" fill="#121212" stroke="black" stroke-width="0.3"/>
<path d="M42.0254 14.7411H41.8754V14.8911V16.4911V16.6411H42.0254H53.2034H53.3534V16.4911V14.8911V14.7411H53.2034H42.0254Z" fill="#121212" stroke="black" stroke-width="0.3"/>
<path d="M49.6742 73.8529L49.674 73.8529C48.4814 73.8543 47.338 74.3288 46.4947 75.1722C45.6515 76.0156 45.1773 77.1591 45.1762 78.3518V78.3519V79.1519V79.3019H45.3262H54.0262H54.1762V79.1519L54.1762 78.3519L54.1762 78.3518C54.1748 77.159 53.7004 76.0155 52.857 75.1721C52.0136 74.3287 50.8701 73.8543 49.6774 73.8529H49.6772L49.6742 73.8529ZM52.088 77.4H47.2604C47.4382 76.9495 47.7392 76.5563 48.1307 76.2666C48.5774 75.9361 49.1185 75.7577 49.6742 75.7577C50.2299 75.7577 50.7709 75.9361 51.2177 76.2666C51.6092 76.5563 51.9102 76.9495 52.088 77.4Z" fill="#121212" stroke="black" stroke-width="0.3"/>
<path d="M49.6504 53.85C57.3271 53.85 63.5504 47.6267 63.5504 39.95C63.5504 32.2732 57.3271 26.05 49.6504 26.05C41.9736 26.05 35.7504 32.2732 35.7504 39.95C35.7504 47.6267 41.9736 53.85 49.6504 53.85Z" fill="white" stroke="black" stroke-width="0.3"/>
<path d="M47.5905 38.4569C47.5181 38.4572 47.4471 38.4371 47.3855 38.3989C47.324 38.3607 47.2744 38.3059 47.2425 38.2409C45.8985 35.5089 42.4645 35.8849 42.4305 35.8869C42.329 35.8988 42.2269 35.8698 42.1466 35.8064C42.0664 35.7431 42.0146 35.6505 42.0025 35.5489C41.8958 34.7411 41.986 33.9194 42.2655 33.1539C42.4804 32.5835 42.813 32.0648 43.2417 31.6315C43.6704 31.1981 44.1855 30.86 44.7535 30.6389C45.369 30.3927 46.0288 30.2769 46.6914 30.2987C47.3539 30.3206 48.0046 30.4797 48.6025 30.7659C51.9365 32.3659 51.4025 37.0809 51.3755 37.2809C51.3632 37.3826 51.311 37.4753 51.2303 37.5385C51.1497 37.6017 51.0473 37.6302 50.9455 37.6179C50.8438 37.6056 50.7512 37.5534 50.688 37.4727C50.6248 37.3921 50.5962 37.2896 50.6085 37.1879C50.6135 37.1439 51.1005 32.8209 48.2685 31.4629C47.7672 31.2231 47.2217 31.0897 46.6663 31.0713C46.1108 31.0529 45.5576 31.1498 45.0415 31.3559C44.5734 31.5373 44.1487 31.8152 43.795 32.1714C43.4413 32.5277 43.1665 32.9545 42.9885 33.4239C42.7919 33.959 42.7072 34.5288 42.7395 35.0979C43.8075 35.0819 46.6525 35.2889 47.9395 37.8979C47.962 37.9434 47.9752 37.9929 47.9785 38.0435C47.9818 38.0941 47.975 38.1449 47.9587 38.1929C47.9423 38.2409 47.9167 38.2852 47.8832 38.3233C47.8497 38.3614 47.8091 38.3925 47.7635 38.4149C47.7103 38.4408 47.6517 38.4539 47.5925 38.4529L47.5905 38.4569Z" fill="#121212"/>
<path d="M47.6153 38.8568H47.5968H47.5869H47.5868V38.7068C47.4683 38.7069 47.3523 38.6737 47.2518 38.6109C47.1514 38.5481 47.0706 38.4584 47.0188 38.3518L47.6153 38.8568ZM47.6153 38.8568L47.6204 38.8555C47.7469 38.8521 47.8708 38.818 47.9814 38.7561C48.0976 38.6911 48.1953 38.5975 48.2653 38.4842C48.3353 38.3709 48.3752 38.2416 48.3813 38.1086C48.3874 37.9756 48.3594 37.8432 48.3001 37.724L48.3002 37.7239L48.2972 37.7184C47.7764 36.7736 47.004 35.9915 46.0657 35.459C45.1734 34.9526 44.1642 34.6908 43.1402 34.6986C43.1566 34.3127 43.2328 33.9314 43.3663 33.5684C43.5248 33.1513 43.7692 32.7723 44.0835 32.4557C44.3981 32.139 44.7758 31.892 45.192 31.7307L45.192 31.7307L45.1935 31.7301C45.621 31.559 46.0772 31.4713 46.5376 31.4718L46.5376 31.4718C47.0786 31.4724 47.6127 31.5935 48.1011 31.8262C49.367 32.4338 49.9027 33.7302 50.1168 34.916C50.3107 35.99 50.2344 36.9279 50.2185 37.1244C50.2179 37.1314 50.2174 37.1376 50.217 37.1427L50.2169 37.1427C50.2044 37.2452 50.2122 37.3491 50.2399 37.4486C50.2676 37.548 50.3146 37.6411 50.3782 37.7224C50.4418 37.8037 50.5208 37.8716 50.6107 37.9224C50.7006 37.9732 50.7997 38.0057 50.9021 38.0182C51.0046 38.0307 51.1086 38.0229 51.208 37.9952C51.3075 37.9676 51.4005 37.9206 51.4818 37.8569C51.5631 37.7933 51.6311 37.7143 51.6819 37.6244C51.7326 37.5346 51.7651 37.4358 51.7776 37.3335C51.7916 37.2227 51.9379 35.9301 51.6382 34.4497C51.3386 32.97 50.5866 31.2746 48.7807 30.4086L48.7804 30.4085C48.0801 30.0741 47.3141 29.9 46.538 29.8988L46.5379 29.8988C45.8784 29.8983 45.2249 30.0241 44.6127 30.2693C43.9927 30.5112 43.4305 30.8806 42.9625 31.3536C42.4943 31.8268 42.1307 32.3931 41.8955 33.0158L41.8955 33.0158L41.8948 33.0175C41.5946 33.8423 41.4972 34.7271 41.611 35.5974L47.6153 38.8568ZM45.1951 36.7796C45.9002 37.16 46.4857 37.7288 46.8864 38.4224L41.7598 35.5788C41.7796 35.7451 41.8643 35.8969 41.9953 36.0012C42.1264 36.1055 42.2933 36.1539 42.4598 36.1358L42.4732 36.2852C42.4736 36.2852 42.474 36.2852 42.4745 36.2851C42.5386 36.2794 42.6785 36.2688 42.8798 36.2688V36.2691L42.8886 36.2686C43.69 36.2215 44.4886 36.3985 45.1951 36.7796ZM46.0188 36.3392C46.4859 36.6337 46.9248 37.0293 47.282 37.5593C46.9347 37.0829 46.5074 36.67 46.0188 36.3392Z" fill="#121212" stroke="black" stroke-width="0.3"/>
<path d="M47.2257 49.4159C46.2398 49.4121 45.2841 49.0752 44.5137 48.4599C43.9924 48.0496 43.5619 47.5356 43.2495 46.9503C42.937 46.3651 42.7495 45.7214 42.6987 45.0599C42.4167 41.3729 46.7687 39.4799 46.9547 39.4009C47.0016 39.3795 47.0524 39.3678 47.104 39.3664C47.1556 39.3649 47.2069 39.3739 47.255 39.3926C47.303 39.4114 47.3468 39.4396 47.3838 39.4756C47.4208 39.5116 47.4502 39.5546 47.4702 39.6022C47.4903 39.6497 47.5006 39.7008 47.5006 39.7524C47.5006 39.804 47.4902 39.855 47.4701 39.9025C47.45 39.9501 47.4206 39.9931 47.3836 40.029C47.3466 40.065 47.3028 40.0932 47.2547 40.1119C47.2137 40.1289 43.2267 41.8699 43.4667 45.0019C43.5093 45.5562 43.6664 46.0956 43.9283 46.586C44.1901 47.0764 44.5508 47.5071 44.9877 47.8509C45.379 48.1658 45.8323 48.3947 46.318 48.5227C46.8037 48.6507 47.311 48.675 47.8067 48.5939C48.3683 48.4967 48.904 48.2854 49.3807 47.9729C48.8397 47.0729 47.5887 44.4889 49.2067 42.0729C49.2637 41.9878 49.3522 41.9288 49.4527 41.9089C49.5532 41.889 49.6575 41.9099 49.7427 41.9669C49.8278 42.0239 49.8868 42.1124 49.9067 42.2129C49.9266 42.3135 49.9057 42.4178 49.8487 42.5029C48.1617 45.0229 50.1317 47.7339 50.2167 47.8479C50.2472 47.8885 50.2694 47.9346 50.2821 47.9838C50.2947 48.0329 50.2975 48.0841 50.2904 48.1344C50.2832 48.1846 50.2662 48.233 50.2404 48.2766C50.2145 48.3203 50.1803 48.3585 50.1397 48.3889C49.4923 48.8855 48.7344 49.2179 47.9307 49.3579C47.6976 49.3963 47.4619 49.4157 47.2257 49.4159Z" fill="#121212"/>
<path d="M48.8438 47.8271C48.4833 47.1475 48.2304 46.4157 48.0944 45.658C47.8435 44.3339 48.1253 42.9644 48.8785 41.8469C48.9359 41.7612 49.0096 41.6877 49.0954 41.6305C49.1813 41.5732 49.2777 41.5333 49.379 41.5132C49.4803 41.4932 49.5846 41.4932 49.6859 41.5134C49.7872 41.5337 49.8835 41.5736 49.9693 41.6311C50.0552 41.6885 50.1288 41.7623 50.1862 41.8482C50.2435 41.9342 50.2833 42.0305 50.3034 42.1318C50.3235 42.2332 50.3234 42.3374 50.3032 42.4387C50.283 42.54 50.243 42.6363 50.1856 42.7222L50.1855 42.7222C49.4229 43.8612 49.4873 45.048 49.7587 45.9752C50.0298 46.9013 50.5038 47.5538 50.5424 47.6065C50.5426 47.6067 50.5427 47.6068 50.5428 47.607L48.8438 47.8271ZM48.8438 47.8271C48.4994 48.0073 48.1287 48.1328 47.745 48.1988C47.3044 48.2709 46.8535 48.2492 46.4218 48.1352C45.9898 48.0212 45.5868 47.8174 45.239 47.537L45.2378 47.5359C44.8447 47.2261 44.52 46.8383 44.2842 46.3969C44.0484 45.9555 43.9065 45.47 43.8674 44.9711C43.7606 43.5736 44.615 42.4603 45.5348 41.6807C45.9922 41.293 46.4585 40.9942 46.8134 40.7913C46.9907 40.6899 47.1396 40.6127 47.245 40.5606C47.2977 40.5345 47.3395 40.5147 47.3684 40.5013C47.398 40.4875 47.4132 40.4809 47.4131 40.481L47.4138 40.4807C47.6057 40.3988 47.7571 40.244 47.8349 40.0504C47.9126 39.8568 47.9103 39.6402 47.8284 39.4483C47.7464 39.2565 47.5916 39.105 47.398 39.0273C47.2046 38.9496 46.9883 38.9519 46.7966 39.0335C46.694 39.0768 45.5004 39.5956 44.3677 40.595C43.2355 41.5939 42.1432 43.0929 42.2984 45.0914L42.2984 45.0914C42.3544 45.8074 42.5579 46.504 42.8962 47.1375C43.2344 47.7709 43.7 48.3275 44.2637 48.7723C45.1054 49.4426 46.1482 49.8101 47.2241 49.8157L47.2255 49.8157C47.4861 49.8146 47.7461 49.7922 48.003 49.7486L48.0038 49.7485C48.8696 49.597 49.6861 49.2392 50.3844 48.7054L48.8438 47.8271Z" fill="#121212" stroke="black" stroke-width="0.3"/>
<path d="M55.2355 43.6497C53.7084 43.5791 52.2301 43.0907 50.9614 42.2377C50.9152 42.213 50.8746 42.179 50.8419 42.138C50.8092 42.097 50.7853 42.0498 50.7715 41.9992C50.7576 41.9486 50.7543 41.8958 50.7616 41.8439C50.7688 41.792 50.7866 41.7421 50.8138 41.6972C50.841 41.6524 50.8771 41.6136 50.9198 41.5832C50.9625 41.5528 51.0109 41.5314 51.0622 41.5203C51.1134 41.5092 51.1664 41.5086 51.2178 41.5187C51.2693 41.5287 51.3182 41.5492 51.3615 41.5787C53.3235 42.7787 55.0615 43.1477 56.5125 42.6787C57.6789 42.2551 58.6322 41.3899 59.1665 40.2697C60.0545 37.9357 58.0075 36.3297 57.1175 35.7627C55.9525 38.5627 52.3935 38.8627 52.2355 38.8787C52.1333 38.8866 52.0323 38.8535 51.9546 38.7868C51.8768 38.7202 51.8288 38.6253 51.821 38.5232C51.8131 38.4211 51.8462 38.3201 51.9129 38.2424C51.9795 38.1646 52.0743 38.1166 52.1765 38.1087C52.2125 38.1087 55.7445 37.7947 56.5405 35.0867C56.5563 35.0322 56.5841 34.9818 56.6216 34.9392C56.6592 34.8966 56.7058 34.8628 56.7579 34.8403C56.8101 34.8177 56.8666 34.807 56.9234 34.8088C56.9801 34.8106 57.0358 34.8249 57.0865 34.8507C58.5265 35.5847 60.9655 37.7177 59.8865 40.5577C59.5827 41.218 59.1496 41.8107 58.6129 42.3007C58.0761 42.7908 57.4466 43.1682 56.7615 43.4107C56.2682 43.5683 55.7533 43.6476 55.2355 43.6457V43.6497Z" fill="#121212"/>
<path d="M52.1529 37.8609C51.9848 37.8739 51.8287 37.9532 51.719 38.0813C51.6093 38.2094 51.555 38.3758 51.5679 38.5439C51.581 38.7034 51.6533 38.8521 51.7707 38.9608C51.8881 39.0695 52.042 39.1302 52.2019 39.1309L52.1529 37.8609ZM52.1529 37.8609C52.1859 37.8609 55.5529 37.5509 56.2969 35.0179L52.1529 37.8609ZM55.2261 44.0498L55.2261 44.0499H55.2329H55.2519C55.7958 44.0499 56.3364 43.9669 56.8551 43.8039H56.8649L56.8893 43.7952C57.6239 43.5333 58.299 43.1276 58.875 42.6018C59.451 42.076 59.9164 41.4407 60.2441 40.7329L60.2441 40.7329L60.2454 40.73L60.2524 40.714L60.2525 40.7141L60.2551 40.7073C60.8469 39.1517 60.4791 37.7888 59.7747 36.7243C59.0735 35.6647 58.0362 34.8948 57.264 34.5013L57.264 34.5013L57.2633 34.5009C57.1603 34.4491 57.0473 34.4204 56.932 34.4168C56.8168 34.4132 56.7022 34.4347 56.5961 34.4799L56.596 34.48C56.4906 34.525 56.3962 34.5927 56.3197 34.6781C56.2433 34.7636 56.1864 34.8648 56.1533 34.9746L56.153 34.9756C55.7993 36.1799 54.82 36.8649 53.9003 37.251C53.442 37.4434 53.0046 37.5588 52.6794 37.626C52.517 37.6596 52.3831 37.6811 52.2893 37.6941C52.2425 37.7006 52.2057 37.705 52.1806 37.7077C52.1661 37.7093 52.1573 37.7101 52.1529 37.7105V37.7105L52.1414 37.7114C51.9336 37.7275 51.7407 37.8254 51.6051 37.9837C51.4695 38.142 51.4024 38.3477 51.4184 38.5555L51.4184 38.5561C51.4345 38.753 51.5238 38.9367 51.6688 39.0709C51.8137 39.2051 52.0037 39.28 52.2013 39.2809H52.2019H52.2509V39.2814L52.2627 39.2805C52.3457 39.2739 53.2705 39.196 54.3462 38.7776C55.3801 38.3754 56.5693 37.6523 57.273 36.3599C57.704 36.6786 58.2213 37.1456 58.5727 37.7371C58.959 38.3871 59.1448 39.1852 58.7958 40.1151C58.31 41.1318 57.4447 41.9173 56.3859 42.3028C56.0145 42.419 55.6275 42.4774 55.2384 42.4759C53.929 42.4038 52.6638 41.9772 51.5781 41.2417L51.5782 41.2416L51.5719 41.2378C51.4837 41.1841 51.3858 41.1484 51.2838 41.1326C51.1817 41.1168 51.0776 41.1212 50.9773 41.1457C50.877 41.1701 50.7825 41.2141 50.6992 41.275C50.6159 41.336 50.5454 41.4128 50.4918 41.501C50.4381 41.5892 50.4024 41.6871 50.3866 41.7891C50.3708 41.8911 50.3753 41.9953 50.3997 42.0956C50.4241 42.1958 50.4681 42.2903 50.5291 42.3737C50.5893 42.456 50.6651 42.5259 50.7521 42.5793C52.0812 43.4686 53.6285 43.9771 55.2261 44.0498Z" fill="#121212" stroke="black" stroke-width="0.3"/>
<path d="M49.7759 42.6837C49.1697 42.6837 48.5772 42.504 48.0731 42.1672C47.5691 41.8304 47.1762 41.3517 46.9442 40.7916C46.7123 40.2316 46.6516 39.6153 46.7698 39.0208C46.8881 38.4262 47.18 37.8801 47.6087 37.4514C48.0373 37.0228 48.5834 36.7309 49.178 36.6126C49.7725 36.4943 50.3888 36.555 50.9489 36.787C51.5089 37.019 51.9876 37.4119 52.3244 37.9159C52.6612 38.4199 52.8409 39.0125 52.8409 39.6187C52.8409 40.4316 52.518 41.2112 51.9432 41.786C51.3684 42.3608 50.5888 42.6837 49.7759 42.6837ZM49.7759 37.3267C49.3226 37.3267 48.8795 37.4611 48.5026 37.713C48.1257 37.9648 47.8319 38.3228 47.6584 38.7416C47.4849 39.1604 47.4395 39.6213 47.528 40.0659C47.6164 40.5105 47.8347 40.9189 48.1552 41.2394C48.4758 41.5599 48.8842 41.7782 49.3288 41.8667C49.7734 41.9551 50.2342 41.9097 50.6531 41.7362C51.0719 41.5628 51.4298 41.269 51.6817 40.8921C51.9335 40.5152 52.0679 40.072 52.0679 39.6187C52.0677 39.011 51.8261 38.4283 51.3963 37.9987C50.9665 37.5691 50.3836 37.3267 49.7759 37.3267Z" fill="#121212"/>
<path d="M49.7759 43.0837H49.7761C50.6948 43.0829 51.5756 42.7176 52.2252 42.068C52.8748 41.4184 53.2401 40.5375 53.2409 39.6188V39.6187C53.2409 38.9334 53.0377 38.2635 52.657 37.6937C52.2762 37.1238 51.7351 36.6797 51.1019 36.4175C50.4688 36.1552 49.7721 36.0866 49.1 36.2203C48.4278 36.354 47.8104 36.684 47.3258 37.1686C46.8412 37.6532 46.5112 38.2706 46.3775 38.9427C46.2438 39.6149 46.3124 40.3116 46.5747 40.9447C46.837 41.5779 47.2811 42.119 47.8509 42.4998C48.4207 42.8805 49.0906 43.0837 49.7759 43.0837ZM51.6719 39.6187L51.6719 39.6196C51.6718 39.9936 51.5607 40.3592 51.3529 40.6701C51.145 40.9811 50.8497 41.2234 50.5042 41.3666C50.1587 41.5098 49.7785 41.5473 49.4116 41.4745C49.0448 41.4017 48.7077 41.2218 48.4431 40.9575C48.1784 40.6933 47.998 40.3565 47.9247 39.9897C47.8513 39.623 47.8883 39.2428 48.031 38.897C48.1736 38.5513 48.4156 38.2556 48.7262 38.0473C49.0318 37.8424 49.3903 37.7311 49.758 37.7268L49.7619 37.7278L49.7809 37.7277C50.0297 37.7261 50.2763 37.7739 50.5065 37.8684C50.7366 37.9629 50.9457 38.1021 51.1216 38.278C51.2976 38.4539 51.4368 38.663 51.5313 38.8932C51.6257 39.1233 51.6735 39.37 51.6719 39.6187Z" fill="#121212" stroke="black" stroke-width="0.3"/>
</g>
<defs>
<clipPath id="clip0_1543_1180">
<rect width="51.354" height="77" fill="white" transform="translate(24 11)"/>
</clipPath>
</defs>
</svg>
