<svg width="100" height="100" viewBox="0 0 100 100" fill="none" xmlns="http://www.w3.org/2000/svg">
<g clip-path="url(#clip0_1543_1190)">
<path d="M73.4472 83C71.1319 83.0034 68.871 82.2981 66.9682 80.979L59.8082 76.02L59.6302 76.179C57.6942 77.9413 55.1711 78.9192 52.5532 78.922H47.1162C45.2601 78.9198 43.4376 78.4272 41.8332 77.494L41.7462 77.441C40.7605 76.9203 39.8928 76.202 39.1972 75.331L39.1872 75.319C38.0946 74.075 37.3071 72.5935 36.8872 70.992L36.8292 70.767H11.9422C11.1623 70.767 10.4 70.5358 9.75158 70.1024C9.1032 69.6691 8.59792 69.0532 8.29967 68.3326C8.00142 67.612 7.92361 66.8192 8.07607 66.0543C8.22853 65.2895 8.60442 64.5871 9.15617 64.036L10.8642 62.329C11.8741 61.3134 13.0755 60.5083 14.3988 59.9602C15.7221 59.4121 17.1409 59.132 18.5732 59.136H22.3512C27.6264 59.1425 32.8951 59.5101 38.1202 60.236L38.2972 60.261L38.4022 60.119C39.2497 58.9662 40.3578 58.0301 41.636 57.3871C42.9142 56.7441 44.3264 56.4124 45.7572 56.419H46.0572V34.068H45.7572C45.577 34.0683 45.3997 34.0225 45.2422 33.935C45.0847 33.8475 44.9521 33.7211 44.8572 33.568L40.2242 26.154C38.706 23.7252 37.9017 20.9183 37.9032 18.054C37.9045 17.7742 38.0165 17.5062 38.2148 17.3088C38.413 17.1113 38.6813 17.0003 38.9612 17H60.7092C60.9898 17.0003 61.2588 17.1118 61.4574 17.3101C61.6559 17.5084 61.7676 17.7774 61.7682 18.058C61.7693 20.9225 60.9643 23.7295 59.4452 26.158L54.8102 33.57C54.7154 33.7233 54.5829 33.8498 54.4254 33.9374C54.2678 34.0249 54.0904 34.0706 53.9102 34.07H53.6102V56.42H53.9102C55.7882 56.4336 57.6182 57.0154 59.1592 58.089L59.3592 58.225L75.1782 43.984C76.2734 43 77.5759 42.2748 78.9892 41.8622C80.4025 41.4495 81.8905 41.3599 83.3432 41.6L88.3662 42.437C89.1616 42.5694 89.8975 42.9421 90.4751 43.5048C91.0527 44.0676 91.4443 44.7936 91.5973 45.5853C91.7504 46.3771 91.6575 47.1967 91.3313 47.9342C91.005 48.6717 90.461 49.2917 89.7722 49.711L63.1262 65.93V67.63L81.1672 74.85C81.9237 75.1523 82.5607 75.6938 82.9808 76.3918C83.401 77.0898 83.5813 77.9061 83.4943 78.7162C83.4073 79.5263 83.0577 80.2857 82.4989 80.8785C81.9401 81.4714 81.2027 81.8653 80.3992 82L75.3212 82.845C74.702 82.9493 74.0751 83.0011 73.4472 83ZM63.0122 69.867L62.9462 70.231C62.6967 71.6375 62.1606 72.9776 61.3712 74.168L61.2092 74.414L68.1742 79.237C69.7307 80.306 71.5739 80.8797 73.4622 80.883C73.9647 80.8827 74.4664 80.8412 74.9622 80.759L80.0422 79.913C80.3912 79.8555 80.7117 79.6853 80.9547 79.4284C81.1978 79.1715 81.35 78.842 81.388 78.4903C81.426 78.1387 81.3477 77.7843 81.1651 77.4814C80.9826 77.1785 80.7058 76.9437 80.3772 76.813L63.0072 69.867H63.0122ZM49.8342 66.689C43.5132 66.689 39.7102 67.721 38.7992 68.371L38.6682 68.465L38.6732 68.626C38.7457 70.818 39.6667 72.8962 41.2417 74.4224C42.8168 75.9486 44.923 76.8035 47.1162 76.807H52.5532C54.7473 76.8051 56.8548 75.9505 58.4307 74.4239C60.0066 72.8973 60.9276 70.8179 60.9992 68.625V68.465L60.8682 68.371C59.9572 67.721 56.1552 66.689 49.8342 66.689ZM18.5722 61.252C17.4179 61.2487 16.2745 61.4745 15.2082 61.9163C14.1418 62.3581 13.1738 63.0073 12.3602 63.826L10.6502 65.534C10.3947 65.7893 10.2207 66.1147 10.1502 66.4689C10.0797 66.8232 10.1159 67.1904 10.2543 67.524C10.3926 67.8576 10.6269 68.1427 10.9273 68.3432C11.2278 68.5436 11.581 68.6504 11.9422 68.65H36.5422V65.631C36.5445 64.5982 36.722 63.5734 37.0672 62.6L37.1892 62.249L36.8212 62.201C32.023 61.577 27.1898 61.2603 22.3512 61.253L18.5722 61.252ZM45.7562 58.534C43.8731 58.534 42.0672 59.282 40.7357 60.6135C39.4042 61.945 38.6562 63.751 38.6562 65.634V66.094L39.0622 65.941C42.3362 64.709 47.6832 64.576 49.8302 64.576C50.2362 64.576 51.0722 64.582 52.1152 64.623H52.2362L57.7472 59.663L57.3822 59.463C56.3222 58.8629 55.1262 58.5444 53.9082 58.538L45.7562 58.534ZM81.7472 43.585C79.8447 43.5817 78.0084 44.2835 76.5932 45.555L55.1802 64.827L55.8392 64.906C57.0612 65.0398 58.2718 65.2631 59.4612 65.574L59.5862 65.608L88.6722 47.9C88.9405 47.7353 89.1624 47.5049 89.3167 47.2305C89.4711 46.9561 89.5528 46.6468 89.5542 46.332C89.5553 45.8969 89.4015 45.4757 89.1202 45.1438C88.8389 44.8119 88.4485 44.5911 88.0192 44.521L82.9992 43.687C82.5854 43.6185 82.1666 43.5844 81.7472 43.585ZM48.1732 34.068V56.418H51.4992V34.068H48.1732ZM40.0572 19.116L40.0922 19.449C40.3051 21.4322 40.9638 23.3415 42.0192 25.034L46.3432 31.952H53.3252L57.6522 25.032C58.7075 23.3402 59.3663 21.4316 59.5792 19.449L59.6132 19.116H40.0572Z" fill="#121212"/>
</g>
<defs>
<clipPath id="clip0_1543_1190">
<rect width="83.67" height="66" fill="white" transform="translate(8 17)"/>
</clipPath>
</defs>
</svg>
