<svg width="100" height="100" viewBox="0 0 100 100" fill="none" xmlns="http://www.w3.org/2000/svg">
<g clip-path="url(#clip0_1543_1200)">
<mask id="mask0_1543_1200" style="mask-type:luminance" maskUnits="userSpaceOnUse" x="11" y="22" width="77" height="57">
<path d="M88 22H11V78.516H88V22Z" fill="white"/>
</mask>
<g mask="url(#mask0_1543_1200)">
<path d="M88.0002 40.0341C87.8094 40.8084 87.4325 41.5245 86.9022 42.1202C86.3719 42.7158 85.7042 43.173 84.9572 43.4521C86.0302 46.1421 83.8482 46.8461 82.2222 47.9321C82.9782 49.5751 83.7022 51.1901 84.4612 52.7891C85.1702 54.0906 85.5589 55.5424 85.5952 57.0241C85.6165 58.2965 85.3189 59.554 84.7296 60.6818C84.1402 61.8097 83.2779 62.772 82.2212 63.4811C80.7445 64.4102 79.6837 65.8736 79.2602 67.5661C79.2169 67.7361 79.1628 67.9031 79.0982 68.0661C79.0589 68.219 78.9885 68.3622 78.8913 68.4866C78.7941 68.611 78.6722 68.714 78.5334 68.7891C78.3945 68.8642 78.2416 68.9098 78.0843 68.9231C77.927 68.9363 77.7686 68.9169 77.6192 68.8661C77.3359 68.757 77.1068 68.5412 76.981 68.2651C76.8551 67.9889 76.8426 67.6744 76.9462 67.3891C77.4659 65.0405 78.8812 62.9873 80.8912 61.6661C81.9897 60.9564 82.7955 59.8744 83.1609 58.6186C83.5262 57.3628 83.4265 56.0174 82.8802 54.8291C81.0408 50.6958 79.1442 46.5851 77.1902 42.4971C76.774 41.5863 76.1155 40.8074 75.2866 40.2455C74.4577 39.6836 73.4903 39.3604 72.4902 39.3111C63.8171 38.5042 55.0821 39.9369 47.1212 43.4721C39.2318 47.0649 32.1802 52.2663 26.4182 58.7431C23.7639 61.649 21.3415 64.7586 19.1732 68.0431C18.9842 68.3281 18.7392 68.7251 18.4732 68.7711C18.0321 68.852 17.5766 68.7703 17.1912 68.5411C17.0874 68.4573 17.002 68.3531 16.9403 68.2348C16.8786 68.1166 16.8419 67.9869 16.8325 67.8539C16.8231 67.7208 16.8412 67.5873 16.8857 67.4615C16.9302 67.3358 17.0002 67.2206 17.0912 67.1231C17.8792 65.9631 18.6572 64.7951 19.4912 63.6671C23.9967 57.4467 29.4551 51.9758 35.6652 47.4561C35.8242 47.3411 35.9732 47.2121 36.1772 47.0491C35.7622 46.2351 35.3512 45.4411 34.9522 44.6411C34.6718 44.1697 34.4957 43.6436 34.4357 43.0984C34.3757 42.5532 34.4332 42.0015 34.6043 41.4804C34.7754 40.9592 35.0562 40.4808 35.4277 40.0773C35.7992 39.6738 36.2529 39.3546 36.7582 39.1411C39.0955 37.9411 41.4365 36.7481 43.7812 35.5621C44.2523 35.2817 44.7779 35.1055 45.3228 35.0451C45.8677 34.9848 46.4191 35.0418 46.9402 35.2123C47.4612 35.3829 47.9397 35.6629 48.3434 36.0337C48.7472 36.4045 49.067 36.8575 49.2812 37.3621C49.6722 38.1161 50.0572 38.8731 50.4602 39.6621C51.8932 39.2621 53.2992 38.8441 54.7182 38.4741C60.5815 36.9784 66.6577 36.4984 72.6832 37.0551C73.8768 37.1414 75.0348 37.4995 76.0689 38.1019C77.1029 38.7044 77.9855 39.5353 78.6492 40.5311C78.9252 40.9251 79.1622 41.0771 79.6182 40.8651C79.9332 40.7191 80.2862 40.6571 80.6182 40.5361C81.1818 40.2502 81.8293 40.1762 82.4429 40.3276C83.0565 40.4791 83.5953 40.8458 83.9612 41.3611C84.4871 41.263 84.959 40.9759 85.2878 40.5538C85.6166 40.1318 85.7796 39.6041 85.7462 39.0701C85.7582 37.2161 85.7582 35.3624 85.7462 33.5091C85.7667 33.1947 85.7198 32.8796 85.6086 32.5848C85.4975 32.29 85.3246 32.0223 85.1016 31.7997C84.8787 31.5771 84.6107 31.4047 84.3157 31.2941C84.0207 31.1834 83.7055 31.1371 83.3912 31.1581C82.0382 31.1471 80.6842 31.1671 79.3312 31.1531C78.7279 31.1711 78.1273 31.0663 77.5658 30.8448C77.0044 30.6234 76.4939 30.2901 76.0653 29.8651C75.6368 29.4401 75.2992 28.9324 75.0731 28.3728C74.847 27.8132 74.7371 27.2135 74.7502 26.6101C74.7352 25.5101 74.7392 24.4101 74.7502 23.3031C74.7532 22.4931 75.1972 21.9921 75.8692 22.0001C76.5412 22.0081 76.9802 22.5091 76.9922 23.3281C77.0082 24.4051 76.9862 25.4821 77.0002 26.5601C76.981 26.8746 77.0292 27.1896 77.1417 27.484C77.2542 27.7783 77.4283 28.0453 77.6523 28.2669C77.8764 28.4884 78.1452 28.6596 78.4408 28.7688C78.7363 28.878 79.0519 28.9228 79.3662 28.9001C80.6662 28.9141 81.9722 28.9001 83.2762 28.9001C84.3124 28.8389 85.3374 29.1416 86.1742 29.7558C87.011 30.37 87.6069 31.2572 87.8592 32.2641C87.8972 32.3519 87.9444 32.4353 88.0002 32.5131V40.0341ZM48.3472 40.5001C47.9042 39.6411 47.5382 38.8721 47.1192 38.1341C47.0332 37.9505 46.9103 37.7865 46.7583 37.6523C46.6062 37.5182 46.4282 37.4167 46.2353 37.3543C46.0424 37.2918 45.8387 37.2697 45.6369 37.2893C45.4351 37.3088 45.2395 37.3697 45.0622 37.4681C42.5288 38.7261 40.0095 40.0088 37.5042 41.3161C37.167 41.4726 36.9032 41.7531 36.7678 42.0992C36.6324 42.4453 36.6357 42.8304 36.7772 43.1741C37.1512 44.0631 37.6292 44.9091 38.0772 45.7991C38.4592 45.5661 38.7592 45.3861 39.0552 45.1991C39.3662 45.0041 39.6742 44.7991 40.0052 44.5921C39.8532 44.2841 39.7352 44.0391 39.6112 43.7921C38.9852 42.5611 39.0162 41.9411 39.7272 41.5671C40.4382 41.1931 40.9942 41.5391 41.6112 42.7351C41.7342 42.9721 41.8752 43.2001 42.0192 43.4521L44.2332 42.2841C44.0982 42.0071 44.0022 41.8031 43.9022 41.6021C43.8022 41.4011 43.6912 41.2021 43.6022 41.0021C43.5176 40.8698 43.4615 40.7214 43.4372 40.5663C43.413 40.4112 43.4212 40.2527 43.4613 40.1009C43.5015 39.9491 43.5726 39.8073 43.6704 39.6845C43.7681 39.5616 43.8903 39.4603 44.0292 39.3871C44.1687 39.3137 44.3222 39.2705 44.4795 39.2605C44.6369 39.2505 44.7946 39.2738 44.9423 39.3289C45.0901 39.384 45.2245 39.4697 45.3368 39.5804C45.4491 39.6911 45.5368 39.8242 45.5942 39.9711C45.8352 40.4031 46.0512 40.8481 46.3112 41.3491L48.3492 40.5021M81.2702 45.8651L82.9632 44.7961C82.3032 42.4791 82.0812 42.3481 80.1522 43.0781C80.1162 43.0921 80.0972 43.1491 80.0462 43.2201L81.2702 45.8651Z" fill="#121212"/>
<path d="M14.1583 78.5202C13.5303 78.3981 12.941 78.1263 12.4405 77.7278C11.94 77.3293 11.543 76.8159 11.2833 76.2312C11.0572 75.685 10.9672 75.0919 11.021 74.5032C11.0749 73.9145 11.2711 73.3477 11.5926 72.8516C11.9142 72.3555 12.3515 71.945 12.8669 71.6554C13.3823 71.3658 13.9604 71.2058 14.5513 71.1892C14.8013 71.1752 15.0513 71.1822 15.3023 71.1822H77.6123C79.7993 71.1822 80.5943 71.9822 80.5953 74.1722C80.5953 74.6232 80.5673 75.0722 80.5953 75.5242C80.7096 76.1747 80.575 76.8445 80.2182 77.4003C79.8613 77.9561 79.3084 78.3574 78.6693 78.5242L14.1583 78.5202ZM78.2993 73.4322H15.2913C15.0408 73.4223 14.79 73.4287 14.5403 73.4512C14.1924 73.4793 13.8678 73.6373 13.6311 73.8938C13.3944 74.1504 13.263 74.4866 13.263 74.8357C13.263 75.1847 13.3944 75.521 13.6311 75.7775C13.8678 76.0341 14.1924 76.1921 14.5403 76.2202C14.7649 76.2427 14.9908 76.2497 15.2163 76.2412H78.2993V73.4322Z" fill="#121212"/>
<path d="M52.9579 63.6711C48.5733 63.6711 44.1889 63.6711 39.8049 63.6711C39.2256 63.7213 38.6457 63.5815 38.153 63.2728C37.6602 62.9641 37.2814 62.5033 37.0739 61.9601C36.86 61.4319 36.8246 60.8483 36.9732 60.2982C37.1218 59.7481 37.4462 59.2617 37.8969 58.9131C41.8275 55.4501 46.1804 52.4984 50.8519 50.1281C55.4663 47.7448 60.4861 46.2467 65.6519 45.7111C66.6176 45.5868 67.5972 45.786 68.4378 46.2773C69.2783 46.7687 69.9324 47.5247 70.2979 48.4271C70.9979 50.0271 71.6719 51.6471 72.3339 53.2671C72.5919 53.8677 72.7165 54.5171 72.6993 55.1705C72.682 55.824 72.5232 56.4659 72.2339 57.0521C71.6139 58.3631 71.0049 59.6801 70.3619 60.9801C69.9989 61.8143 69.3915 62.5188 68.62 63.0008C67.8484 63.4828 66.9488 63.7197 66.0399 63.6801C61.6806 63.6754 57.3213 63.6754 52.9619 63.6801M53.0889 61.4251C57.3729 61.4251 61.6559 61.4121 65.9399 61.4331C66.4549 61.4719 66.9688 61.3458 67.4073 61.0731C67.8458 60.8004 68.1861 60.3951 68.3789 59.9161C68.9679 58.6461 69.6609 57.4161 70.1489 56.1101C70.3804 55.4631 70.3979 54.7588 70.1989 54.1011C69.6489 52.5011 68.9379 50.9461 68.2619 49.3861C68.0835 48.8974 67.7386 48.4872 67.2878 48.2275C66.837 47.9678 66.3092 47.8753 65.7969 47.9661C62.3292 48.3021 58.9278 49.1346 55.6969 50.4381C49.8439 52.82 44.4346 56.1724 39.6969 60.3541C39.4921 60.5814 39.3173 60.8342 39.1769 61.1061C39.4629 61.2526 39.7699 61.3538 40.0869 61.4061C44.4209 61.4261 48.7549 61.4201 53.0869 61.4191" fill="#121212"/>
</g>
</g>
<defs>
<clipPath id="clip0_1543_1200">
<rect width="77" height="56.516" fill="white" transform="translate(11 22)"/>
</clipPath>
</defs>
</svg>
