<svg width="100" height="100" viewBox="0 0 100 100" fill="none" xmlns="http://www.w3.org/2000/svg">
<path d="M34.7917 28.1039C36.7154 29.5237 39.1456 30.7483 41.9813 30.8036C45.9779 30.8816 47.811 28.5797 52.1779 28.2544C54.3257 28.0944 56.9904 28.4201 60.1256 29.951" stroke="black" stroke-width="1.4" stroke-linecap="round" stroke-linejoin="round"/>
<path d="M60.5661 26.0829C61.1561 26.0851 61.9844 26.1022 62.9738 26.1702C64.3689 26.2659 65.0751 26.3185 65.4999 26.5515C66.3792 27.0338 66.6004 28.1206 66.6657 29.9402C66.7372 31.9241 66.5879 33.778 65.4028 39.1318C65.0284 40.823 64.8044 41.7167 63.8968 42.478C62.6263 43.5437 60.6894 43.7852 60.302 43.8334C59.5691 43.9247 58.9458 43.9063 58.5063 43.8701" stroke="black" stroke-width="1.4" stroke-linecap="round" stroke-linejoin="round"/>
<path d="M60.8289 24.0043C61.542 23.9539 62.5996 23.9366 63.8481 24.137C65.1003 24.3381 66.4068 24.5478 67.3457 25.4078C68.1203 26.1169 68.3287 26.9786 68.4631 27.7374C68.9163 30.2983 68.6865 32.6057 68.3172 35.0229C68.2823 35.2527 67.7833 38.4224 66.5199 41.8848C66.2754 42.5548 65.9416 43.402 65.0624 44.1298C64.2379 44.8123 63.333 45.0594 61.7103 45.4852C60.846 45.7121 59.6161 45.9839 58.0918 46.1516" stroke="black" stroke-width="1.4" stroke-linecap="round" stroke-linejoin="round"/>
<path d="M53.8356 15H41.0798V17.3644H53.8356V15Z" stroke="black" stroke-width="1.4" stroke-linecap="round" stroke-linejoin="round"/>
<path d="M47.3518 73.7766C51.1085 73.7766 54.154 71.1212 54.154 67.8456C54.154 64.57 51.1085 61.9146 47.3518 61.9146C43.595 61.9146 40.5496 64.57 40.5496 67.8456C40.5496 71.1212 43.595 73.7766 47.3518 73.7766Z" stroke="black" stroke-width="1.4" stroke-linecap="round" stroke-linejoin="round"/>
<path d="M47.3518 61.906V67.5348" stroke="black" stroke-width="1.4" stroke-linecap="round" stroke-linejoin="round"/>
<path d="M33.3457 83.4951C33.3237 83.8183 33.3017 84.1416 33.2796 84.4651C33.2601 84.7507 33.4013 85 33.5824 85H35.055C35.2121 85 35.3433 84.8104 35.3582 84.5625C35.3641 84.4658 35.3697 84.3692 35.3756 84.2723" stroke="black" stroke-width="1.4" stroke-linecap="round" stroke-linejoin="round"/>
<path d="M61.7376 83.4951C61.7597 83.8183 61.7817 84.1416 61.8037 84.4651C61.8233 84.7507 61.6821 85 61.501 85H60.0283C59.8712 85 59.7401 84.8104 59.7251 84.5625C59.7193 84.4658 59.7136 84.3692 59.7078 84.2723" stroke="black" stroke-width="1.4" stroke-linecap="round" stroke-linejoin="round"/>
<path d="M31.5913 19.774C32.3213 20.539 33.4386 21.8751 34.1659 23.7352C35.1761 26.3186 34.5758 27.7166 34.8946 32.6267C35.0295 34.7055 35.2507 36.2036 35.5747 38.3999C36.1072 42.0084 36.7405 44.7609 37.0322 45.9852C37.4803 47.8665 38.0754 50.0894 38.8724 52.5698" stroke="black" stroke-width="1.4" stroke-linecap="round" stroke-linejoin="round"/>
<path d="M61.4192 19.774C61.1682 21.4635 60.7867 24.1544 60.399 27.4831C59.8776 31.9628 59.8465 33.2928 59.2332 38.4537C58.6489 43.3709 58.283 45.4801 57.7273 47.7725C57.2425 49.7723 56.735 51.4092 56.3623 52.5304" stroke="black" stroke-width="1.4" stroke-linecap="round" stroke-linejoin="round"/>
<path d="M35.9191 17.4868H59.1318C60.3943 17.4868 61.4191 18.5116 61.4191 19.7741H33.6318C33.6318 18.5116 34.6567 17.4868 35.9191 17.4868Z" stroke="black" stroke-width="1.4" stroke-linecap="round" stroke-linejoin="round"/>
<path d="M31.5913 19.774H33.6317" stroke="black" stroke-width="1.4" stroke-linecap="round" stroke-linejoin="round"/>
<path d="M39.6848 39.4945L42.9235 52.5307" stroke="black" stroke-width="1.4" stroke-linecap="round" stroke-linejoin="round"/>
<path d="M54.7127 39.342L52.8989 52.4822" stroke="black" stroke-width="1.4" stroke-linecap="round" stroke-linejoin="round"/>
<path d="M36.7609 52.6425C36.0841 55.3614 35.0208 59.5355 33.6208 64.6259C30.2078 77.0371 28.9975 79.6124 30.8999 81.8258C32.8647 84.1119 38.1049 84.1004 48.5853 84.0774C57.4443 84.0581 61.9093 84.0106 63.6472 82.1648C65.7055 79.9785 64.6816 77.1213 61.218 63.5245C60.0216 58.8285 59.0834 55.0066 58.497 52.5945C55.0004 52.4778 51.3696 52.4166 47.6136 52.4252C43.868 52.4337 40.2476 52.5108 36.7607 52.6427L36.7609 52.6425Z" stroke="black" stroke-width="1.4" stroke-linecap="round" stroke-linejoin="round"/>
<path d="M45.721 48.0036C46.1884 48.0036 46.5674 47.6731 46.5674 47.2655C46.5674 46.8579 46.1884 46.5275 45.721 46.5275C45.2535 46.5275 44.8745 46.8579 44.8745 47.2655C44.8745 47.6731 45.2535 48.0036 45.721 48.0036Z" stroke="black" stroke-width="1.4" stroke-linecap="round" stroke-linejoin="round"/>
<path d="M48.6321 44.2448C49.0996 44.2448 49.4785 43.9143 49.4785 43.5067C49.4785 43.0991 49.0996 42.7687 48.6321 42.7687C48.1646 42.7687 47.7856 43.0991 47.7856 43.5067C47.7856 43.9143 48.1646 44.2448 48.6321 44.2448Z" stroke="black" stroke-width="1.4" stroke-linecap="round" stroke-linejoin="round"/>
<path d="M45.7209 40.3739C46.0515 40.3739 46.3194 40.1404 46.3194 39.8522C46.3194 39.5641 46.0515 39.3305 45.7209 39.3305C45.3903 39.3305 45.1223 39.5641 45.1223 39.8522C45.1223 40.1404 45.3903 40.3739 45.7209 40.3739Z" stroke="black" stroke-width="1.4" stroke-linecap="round" stroke-linejoin="round"/>
<path d="M49.2306 34.8619C49.5612 34.8619 49.8292 34.6283 49.8292 34.3401C49.8292 34.052 49.5612 33.8184 49.2306 33.8184C48.9001 33.8184 48.6321 34.052 48.6321 34.3401C48.6321 34.6283 48.9001 34.8619 49.2306 34.8619Z" stroke="black" stroke-width="1.4" stroke-linecap="round" stroke-linejoin="round"/>
</svg>
