<svg width="100" height="100" viewBox="0 0 100 100" fill="none" xmlns="http://www.w3.org/2000/svg">
<g clip-path="url(#clip0_1544_1370)">
<mask id="path-1-outside-1_1544_1370" maskUnits="userSpaceOnUse" x="14.998" y="24.9985" width="69" height="50" fill="black">
<rect fill="white" x="14.998" y="24.9985" width="69" height="50"/>
<path d="M22.5813 74.1999C22.4667 74.2042 22.3529 74.1789 22.2509 74.1263C22.149 74.0738 22.0623 73.9958 21.9993 73.8999C21.9329 73.8052 21.8914 73.6952 21.8786 73.5802C21.8659 73.4652 21.8823 73.3489 21.9263 73.2419L24.1213 67.3909C24.1785 67.2632 24.2706 67.1543 24.3871 67.0768C24.5035 66.9993 24.6395 66.9563 24.7793 66.9529H53.2993V64.0339H48.1803C48.1801 64.4221 48.026 64.7944 47.7517 65.0692C47.4775 65.3439 47.1056 65.4988 46.7173 65.4999C45.5546 65.4967 44.4403 65.0334 43.6181 64.2112C42.7958 63.3889 42.3325 62.2747 42.3293 61.1119C41.1664 61.109 40.0519 60.6458 39.2294 59.8235C38.407 59.0013 37.9435 57.8869 37.9403 56.7239V52.3299H35.7473V58.9119C35.7532 59.0095 35.7382 59.1073 35.7035 59.1988C35.6688 59.2902 35.6151 59.3733 35.5459 59.4424C35.4767 59.5116 35.3937 59.5653 35.3022 59.6C35.2108 59.6348 35.113 59.6497 35.0153 59.6439H24.0453C23.9491 59.6467 23.8535 59.6285 23.765 59.5905C23.6766 59.5525 23.5975 59.4956 23.5333 59.4239L21.3393 57.2309C21.2678 57.1665 21.2111 57.0874 21.1731 56.999C21.1351 56.9106 21.1168 56.8151 21.1193 56.7189V52.3299H16.7313C16.6338 52.3359 16.5362 52.3211 16.4448 52.2865C16.3534 52.252 16.2704 52.1984 16.2012 52.1295C16.1321 52.0605 16.0783 51.9776 16.0435 51.8863C16.0087 51.795 15.9937 51.6974 15.9993 51.5999V45.7469C15.9933 45.6492 16.0082 45.5514 16.0428 45.46C16.0775 45.3685 16.1313 45.2854 16.2005 45.2163C16.2697 45.1472 16.3528 45.0935 16.4444 45.059C16.5359 45.0244 16.6337 45.0097 16.7313 45.0159H21.1193V40.6279C21.1166 40.5318 21.1348 40.4362 21.1726 40.3478C21.2104 40.2594 21.267 40.1803 21.3383 40.1159L23.5313 37.9219C23.5957 37.8504 23.6748 37.7937 23.7632 37.7557C23.8516 37.7177 23.9472 37.6993 24.0433 37.7019H25.5063V33.3139H24.7753C24.6791 33.3168 24.5834 33.2986 24.495 33.2606C24.4065 33.2226 24.3275 33.1657 24.2633 33.0939L22.7993 31.6329C22.7279 31.5685 22.6712 31.4894 22.6332 31.401C22.5952 31.3126 22.5769 31.2171 22.5793 31.1209V26.7319C22.5735 26.6341 22.5885 26.5361 22.6233 26.4445C22.6582 26.3529 22.7121 26.2698 22.7815 26.2006C22.8509 26.1313 22.9342 26.0777 23.0258 26.0431C23.1175 26.0085 23.2155 25.9938 23.3133 25.9999H35.0133C35.111 25.9939 35.2089 26.0087 35.3004 26.0434C35.3919 26.0781 35.475 26.1318 35.5443 26.201C35.6135 26.2702 35.6672 26.3533 35.7018 26.4448C35.7365 26.5364 35.7513 26.6342 35.7453 26.7319V31.1199C35.748 31.2161 35.7297 31.3117 35.6918 31.4001C35.6538 31.4885 35.597 31.5676 35.5253 31.6319L34.0633 33.0939C33.9991 33.1655 33.92 33.2223 33.8316 33.2603C33.7432 33.2983 33.6475 33.3166 33.5513 33.3139H32.8203V37.6999H35.0133C35.111 37.6939 35.2089 37.7087 35.3004 37.7434C35.3919 37.7781 35.475 37.8318 35.5443 37.901C35.6135 37.9702 35.6672 38.0533 35.7018 38.1448C35.7365 38.2364 35.7513 38.3342 35.7453 38.4319V45.0139H37.9393V40.6279C37.9425 39.4651 38.4058 38.3508 39.2281 37.5286C40.0503 36.7064 41.1646 36.2431 42.3273 36.2399C42.3305 35.0767 42.7941 33.9622 43.6168 33.1399C44.4394 32.3176 45.5542 31.8545 46.7173 31.8519C47.1048 31.8529 47.476 32.0073 47.75 32.2813C48.0239 32.5552 48.1783 32.9265 48.1793 33.3139H74.5083C74.5094 32.9262 74.6639 32.5547 74.938 32.2806C75.2122 32.0064 75.5837 31.8519 75.9713 31.8509H78.8993C80.062 31.8543 81.176 32.3178 81.998 33.14C82.82 33.9621 83.2832 35.0763 83.2864 36.2389V61.1059C83.2832 62.2685 82.82 63.3826 81.998 64.2048C81.176 65.027 80.062 65.4905 78.8993 65.4939H75.9693C75.5819 65.4926 75.2108 65.3379 74.937 65.0638C74.6633 64.7897 74.5091 64.4183 74.5083 64.0309H69.3873V66.9569H74.5083C74.6482 66.9603 74.7842 67.0033 74.9006 67.0808C75.0171 67.1583 75.1092 67.2672 75.1663 67.3949L77.3603 73.2459C77.4027 73.3532 77.4182 73.4693 77.4055 73.5839C77.3928 73.6986 77.3522 73.8085 77.2873 73.9039C77.136 74.0715 76.9272 74.1761 76.7023 74.1969L22.5813 74.1999ZM23.6073 72.8099H75.6783L73.9993 68.4179H25.2883L23.6073 72.8099ZM54.7633 66.9589H67.9263V64.0309H54.7623L54.7633 66.9589ZM75.9723 64.0299H78.8993C79.6751 64.0272 80.4182 63.7175 80.9661 63.1684C81.5141 62.6193 81.8223 61.8756 81.8233 61.0999V36.2379C81.821 35.463 81.5122 34.7206 80.9644 34.1726C80.4166 33.6246 79.6742 33.3155 78.8993 33.3129H75.9723V64.0299ZM43.7913 36.2379V61.0999C43.7932 61.8753 44.1021 62.6185 44.6504 63.1668C45.1987 63.7152 45.9419 64.024 46.7173 64.0259V33.3129C45.9421 33.315 45.1993 33.6238 44.651 34.1719C44.1028 34.7199 43.7937 35.4627 43.7913 36.2379ZM48.1813 62.5669H74.5083V34.7749H48.1803L48.1813 62.5669ZM39.3993 40.6269V56.7159C39.4012 57.491 39.7098 58.2339 40.2577 58.7821C40.8056 59.3304 41.5482 59.6395 42.3233 59.6419V37.6999C41.5481 37.7025 40.8055 38.0118 40.2576 38.5603C39.7098 39.1087 39.4012 39.8517 39.3993 40.6269ZM22.5783 40.9199V56.4249L24.3373 58.1799H34.2833V39.1649H24.3373L22.5783 40.9199ZM35.7423 50.8669H37.9373V46.4779H35.7463L35.7423 50.8669ZM17.4583 50.8669H21.1193V46.4779H17.4613L17.4583 50.8669ZM26.9693 37.6999H31.3573V33.3139H26.9693V37.6999ZM24.0433 30.8269L25.0683 31.8509H33.2583L34.2833 30.8259V27.4629H24.0433V30.8269ZM53.2993 56.4869C52.7175 56.4869 52.1594 56.2557 51.748 55.8443C51.3365 55.4328 51.1053 54.8748 51.1053 54.2929C51.1053 53.711 51.3365 53.1529 51.748 52.7415C52.1594 52.33 52.7175 52.0989 53.2993 52.0989H69.3893C69.9712 52.0989 70.5293 52.33 70.9407 52.7415C71.3522 53.1529 71.5833 53.711 71.5833 54.2929C71.5833 54.8748 71.3522 55.4328 70.9407 55.8443C70.5293 56.2557 69.9712 56.4869 69.3893 56.4869H53.2993ZM52.5693 54.2919C52.5634 54.3894 52.5782 54.4871 52.6127 54.5784C52.6473 54.6698 52.7008 54.7528 52.7698 54.822C52.8388 54.8912 52.9216 54.9449 53.0129 54.9797C53.1042 55.0145 53.2018 55.0296 53.2993 55.0239H69.3893C69.5834 55.0239 69.7694 54.9468 69.9066 54.8096C70.0438 54.6725 70.1208 54.4864 70.1208 54.2924C70.1208 54.0984 70.0438 53.9123 69.9066 53.7751C69.7694 53.638 69.5834 53.5609 69.3893 53.5609H53.2993C53.2017 53.5549 53.104 53.5697 53.0125 53.6043C52.9211 53.6389 52.838 53.6926 52.7688 53.7617C52.6996 53.8307 52.6459 53.9137 52.6112 54.0051C52.5764 54.0965 52.5615 54.1943 52.5673 54.2919H52.5693ZM53.2993 44.0919C52.7175 44.0919 52.1594 43.8607 51.748 43.4493C51.3365 43.0378 51.1053 42.4798 51.1053 41.8979C51.1053 41.316 51.3365 40.758 51.748 40.3465C52.1594 39.935 52.7175 39.7039 53.2993 39.7039H69.3893C69.9712 39.7039 70.5293 39.935 70.9407 40.3465C71.3522 40.758 71.5833 41.316 71.5833 41.8979C71.5833 42.4798 71.3522 43.0378 70.9407 43.4493C70.5293 43.8607 69.9712 44.0919 69.3893 44.0919H53.2993ZM52.5693 41.8969C52.5634 41.9944 52.5782 42.0921 52.6127 42.1834C52.6473 42.2748 52.7008 42.3578 52.7698 42.427C52.8388 42.4962 52.9216 42.5499 53.0129 42.5847C53.1042 42.6195 53.2018 42.6346 53.2993 42.6289H69.3893C69.5835 42.6289 69.7697 42.5518 69.9069 42.4145C70.0442 42.2772 70.1213 42.091 70.1213 41.8969C70.1213 41.7027 70.0442 41.5166 69.9069 41.3793C69.7697 41.242 69.5835 41.1649 69.3893 41.1649H53.2993C53.2014 41.159 53.1034 41.174 53.0117 41.2089C52.92 41.2438 52.8368 41.2978 52.7676 41.3673C52.6984 41.4368 52.6447 41.5203 52.6102 41.6121C52.5757 41.7039 52.5611 41.802 52.5673 41.8999L52.5693 41.8969Z"/>
</mask>
<path d="M22.5813 74.1999C22.4667 74.2042 22.3529 74.1789 22.2509 74.1263C22.149 74.0738 22.0623 73.9958 21.9993 73.8999C21.9329 73.8052 21.8914 73.6952 21.8786 73.5802C21.8659 73.4652 21.8823 73.3489 21.9263 73.2419L24.1213 67.3909C24.1785 67.2632 24.2706 67.1543 24.3871 67.0768C24.5035 66.9993 24.6395 66.9563 24.7793 66.9529H53.2993V64.0339H48.1803C48.1801 64.4221 48.026 64.7944 47.7517 65.0692C47.4775 65.3439 47.1056 65.4988 46.7173 65.4999C45.5546 65.4967 44.4403 65.0334 43.6181 64.2112C42.7958 63.3889 42.3325 62.2747 42.3293 61.1119C41.1664 61.109 40.0519 60.6458 39.2294 59.8235C38.407 59.0013 37.9435 57.8869 37.9403 56.7239V52.3299H35.7473V58.9119C35.7532 59.0095 35.7382 59.1073 35.7035 59.1988C35.6688 59.2902 35.6151 59.3733 35.5459 59.4424C35.4767 59.5116 35.3937 59.5653 35.3022 59.6C35.2108 59.6348 35.113 59.6497 35.0153 59.6439H24.0453C23.9491 59.6467 23.8535 59.6285 23.765 59.5905C23.6766 59.5525 23.5975 59.4956 23.5333 59.4239L21.3393 57.2309C21.2678 57.1665 21.2111 57.0874 21.1731 56.999C21.1351 56.9106 21.1168 56.8151 21.1193 56.7189V52.3299H16.7313C16.6338 52.3359 16.5362 52.3211 16.4448 52.2865C16.3534 52.252 16.2704 52.1984 16.2012 52.1295C16.1321 52.0605 16.0783 51.9776 16.0435 51.8863C16.0087 51.795 15.9937 51.6974 15.9993 51.5999V45.7469C15.9933 45.6492 16.0082 45.5514 16.0428 45.46C16.0775 45.3685 16.1313 45.2854 16.2005 45.2163C16.2697 45.1472 16.3528 45.0935 16.4444 45.059C16.5359 45.0244 16.6337 45.0097 16.7313 45.0159H21.1193V40.6279C21.1166 40.5318 21.1348 40.4362 21.1726 40.3478C21.2104 40.2594 21.267 40.1803 21.3383 40.1159L23.5313 37.9219C23.5957 37.8504 23.6748 37.7937 23.7632 37.7557C23.8516 37.7177 23.9472 37.6993 24.0433 37.7019H25.5063V33.3139H24.7753C24.6791 33.3168 24.5834 33.2986 24.495 33.2606C24.4065 33.2226 24.3275 33.1657 24.2633 33.0939L22.7993 31.6329C22.7279 31.5685 22.6712 31.4894 22.6332 31.401C22.5952 31.3126 22.5769 31.2171 22.5793 31.1209V26.7319C22.5735 26.6341 22.5885 26.5361 22.6233 26.4445C22.6582 26.3529 22.7121 26.2698 22.7815 26.2006C22.8509 26.1313 22.9342 26.0777 23.0258 26.0431C23.1175 26.0085 23.2155 25.9938 23.3133 25.9999H35.0133C35.111 25.9939 35.2089 26.0087 35.3004 26.0434C35.3919 26.0781 35.475 26.1318 35.5443 26.201C35.6135 26.2702 35.6672 26.3533 35.7018 26.4448C35.7365 26.5364 35.7513 26.6342 35.7453 26.7319V31.1199C35.748 31.2161 35.7297 31.3117 35.6918 31.4001C35.6538 31.4885 35.597 31.5676 35.5253 31.6319L34.0633 33.0939C33.9991 33.1655 33.92 33.2223 33.8316 33.2603C33.7432 33.2983 33.6475 33.3166 33.5513 33.3139H32.8203V37.6999H35.0133C35.111 37.6939 35.2089 37.7087 35.3004 37.7434C35.3919 37.7781 35.475 37.8318 35.5443 37.901C35.6135 37.9702 35.6672 38.0533 35.7018 38.1448C35.7365 38.2364 35.7513 38.3342 35.7453 38.4319V45.0139H37.9393V40.6279C37.9425 39.4651 38.4058 38.3508 39.2281 37.5286C40.0503 36.7064 41.1646 36.2431 42.3273 36.2399C42.3305 35.0767 42.7941 33.9622 43.6168 33.1399C44.4394 32.3176 45.5542 31.8545 46.7173 31.8519C47.1048 31.8529 47.476 32.0073 47.75 32.2813C48.0239 32.5552 48.1783 32.9265 48.1793 33.3139H74.5083C74.5094 32.9262 74.6639 32.5547 74.938 32.2806C75.2122 32.0064 75.5837 31.8519 75.9713 31.8509H78.8993C80.062 31.8543 81.176 32.3178 81.998 33.14C82.82 33.9621 83.2832 35.0763 83.2864 36.2389V61.1059C83.2832 62.2685 82.82 63.3826 81.998 64.2048C81.176 65.027 80.062 65.4905 78.8993 65.4939H75.9693C75.5819 65.4926 75.2108 65.3379 74.937 65.0638C74.6633 64.7897 74.5091 64.4183 74.5083 64.0309H69.3873V66.9569H74.5083C74.6482 66.9603 74.7842 67.0033 74.9006 67.0808C75.0171 67.1583 75.1092 67.2672 75.1663 67.3949L77.3603 73.2459C77.4027 73.3532 77.4182 73.4693 77.4055 73.5839C77.3928 73.6986 77.3522 73.8085 77.2873 73.9039C77.136 74.0715 76.9272 74.1761 76.7023 74.1969L22.5813 74.1999ZM23.6073 72.8099H75.6783L73.9993 68.4179H25.2883L23.6073 72.8099ZM54.7633 66.9589H67.9263V64.0309H54.7623L54.7633 66.9589ZM75.9723 64.0299H78.8993C79.6751 64.0272 80.4182 63.7175 80.9661 63.1684C81.5141 62.6193 81.8223 61.8756 81.8233 61.0999V36.2379C81.821 35.463 81.5122 34.7206 80.9644 34.1726C80.4166 33.6246 79.6742 33.3155 78.8993 33.3129H75.9723V64.0299ZM43.7913 36.2379V61.0999C43.7932 61.8753 44.1021 62.6185 44.6504 63.1668C45.1987 63.7152 45.9419 64.024 46.7173 64.0259V33.3129C45.9421 33.315 45.1993 33.6238 44.651 34.1719C44.1028 34.7199 43.7937 35.4627 43.7913 36.2379ZM48.1813 62.5669H74.5083V34.7749H48.1803L48.1813 62.5669ZM39.3993 40.6269V56.7159C39.4012 57.491 39.7098 58.2339 40.2577 58.7821C40.8056 59.3304 41.5482 59.6395 42.3233 59.6419V37.6999C41.5481 37.7025 40.8055 38.0118 40.2576 38.5603C39.7098 39.1087 39.4012 39.8517 39.3993 40.6269ZM22.5783 40.9199V56.4249L24.3373 58.1799H34.2833V39.1649H24.3373L22.5783 40.9199ZM35.7423 50.8669H37.9373V46.4779H35.7463L35.7423 50.8669ZM17.4583 50.8669H21.1193V46.4779H17.4613L17.4583 50.8669ZM26.9693 37.6999H31.3573V33.3139H26.9693V37.6999ZM24.0433 30.8269L25.0683 31.8509H33.2583L34.2833 30.8259V27.4629H24.0433V30.8269ZM53.2993 56.4869C52.7175 56.4869 52.1594 56.2557 51.748 55.8443C51.3365 55.4328 51.1053 54.8748 51.1053 54.2929C51.1053 53.711 51.3365 53.1529 51.748 52.7415C52.1594 52.33 52.7175 52.0989 53.2993 52.0989H69.3893C69.9712 52.0989 70.5293 52.33 70.9407 52.7415C71.3522 53.1529 71.5833 53.711 71.5833 54.2929C71.5833 54.8748 71.3522 55.4328 70.9407 55.8443C70.5293 56.2557 69.9712 56.4869 69.3893 56.4869H53.2993ZM52.5693 54.2919C52.5634 54.3894 52.5782 54.4871 52.6127 54.5784C52.6473 54.6698 52.7008 54.7528 52.7698 54.822C52.8388 54.8912 52.9216 54.9449 53.0129 54.9797C53.1042 55.0145 53.2018 55.0296 53.2993 55.0239H69.3893C69.5834 55.0239 69.7694 54.9468 69.9066 54.8096C70.0438 54.6725 70.1208 54.4864 70.1208 54.2924C70.1208 54.0984 70.0438 53.9123 69.9066 53.7751C69.7694 53.638 69.5834 53.5609 69.3893 53.5609H53.2993C53.2017 53.5549 53.104 53.5697 53.0125 53.6043C52.9211 53.6389 52.838 53.6926 52.7688 53.7617C52.6996 53.8307 52.6459 53.9137 52.6112 54.0051C52.5764 54.0965 52.5615 54.1943 52.5673 54.2919H52.5693ZM53.2993 44.0919C52.7175 44.0919 52.1594 43.8607 51.748 43.4493C51.3365 43.0378 51.1053 42.4798 51.1053 41.8979C51.1053 41.316 51.3365 40.758 51.748 40.3465C52.1594 39.935 52.7175 39.7039 53.2993 39.7039H69.3893C69.9712 39.7039 70.5293 39.935 70.9407 40.3465C71.3522 40.758 71.5833 41.316 71.5833 41.8979C71.5833 42.4798 71.3522 43.0378 70.9407 43.4493C70.5293 43.8607 69.9712 44.0919 69.3893 44.0919H53.2993ZM52.5693 41.8969C52.5634 41.9944 52.5782 42.0921 52.6127 42.1834C52.6473 42.2748 52.7008 42.3578 52.7698 42.427C52.8388 42.4962 52.9216 42.5499 53.0129 42.5847C53.1042 42.6195 53.2018 42.6346 53.2993 42.6289H69.3893C69.5835 42.6289 69.7697 42.5518 69.9069 42.4145C70.0442 42.2772 70.1213 42.091 70.1213 41.8969C70.1213 41.7027 70.0442 41.5166 69.9069 41.3793C69.7697 41.242 69.5835 41.1649 69.3893 41.1649H53.2993C53.2014 41.159 53.1034 41.174 53.0117 41.2089C52.92 41.2438 52.8368 41.2978 52.7676 41.3673C52.6984 41.4368 52.6447 41.5203 52.6102 41.6121C52.5757 41.7039 52.5611 41.802 52.5673 41.8999L52.5693 41.8969Z" fill="#121212"/>
<path d="M22.5813 74.1999C22.4667 74.2042 22.3529 74.1789 22.2509 74.1263C22.149 74.0738 22.0623 73.9958 21.9993 73.8999C21.9329 73.8052 21.8914 73.6952 21.8786 73.5802C21.8659 73.4652 21.8823 73.3489 21.9263 73.2419L24.1213 67.3909C24.1785 67.2632 24.2706 67.1543 24.3871 67.0768C24.5035 66.9993 24.6395 66.9563 24.7793 66.9529H53.2993V64.0339H48.1803C48.1801 64.4221 48.026 64.7944 47.7517 65.0692C47.4775 65.3439 47.1056 65.4988 46.7173 65.4999C45.5546 65.4967 44.4403 65.0334 43.6181 64.2112C42.7958 63.3889 42.3325 62.2747 42.3293 61.1119C41.1664 61.109 40.0519 60.6458 39.2294 59.8235C38.407 59.0013 37.9435 57.8869 37.9403 56.7239V52.3299H35.7473V58.9119C35.7532 59.0095 35.7382 59.1073 35.7035 59.1988C35.6688 59.2902 35.6151 59.3733 35.5459 59.4424C35.4767 59.5116 35.3937 59.5653 35.3022 59.6C35.2108 59.6348 35.113 59.6497 35.0153 59.6439H24.0453C23.9491 59.6467 23.8535 59.6285 23.765 59.5905C23.6766 59.5525 23.5975 59.4956 23.5333 59.4239L21.3393 57.2309C21.2678 57.1665 21.2111 57.0874 21.1731 56.999C21.1351 56.9106 21.1168 56.8151 21.1193 56.7189V52.3299H16.7313C16.6338 52.3359 16.5362 52.3211 16.4448 52.2865C16.3534 52.252 16.2704 52.1984 16.2012 52.1295C16.1321 52.0605 16.0783 51.9776 16.0435 51.8863C16.0087 51.795 15.9937 51.6974 15.9993 51.5999V45.7469C15.9933 45.6492 16.0082 45.5514 16.0428 45.46C16.0775 45.3685 16.1313 45.2854 16.2005 45.2163C16.2697 45.1472 16.3528 45.0935 16.4444 45.059C16.5359 45.0244 16.6337 45.0097 16.7313 45.0159H21.1193V40.6279C21.1166 40.5318 21.1348 40.4362 21.1726 40.3478C21.2104 40.2594 21.267 40.1803 21.3383 40.1159L23.5313 37.9219C23.5957 37.8504 23.6748 37.7937 23.7632 37.7557C23.8516 37.7177 23.9472 37.6993 24.0433 37.7019H25.5063V33.3139H24.7753C24.6791 33.3168 24.5834 33.2986 24.495 33.2606C24.4065 33.2226 24.3275 33.1657 24.2633 33.0939L22.7993 31.6329C22.7279 31.5685 22.6712 31.4894 22.6332 31.401C22.5952 31.3126 22.5769 31.2171 22.5793 31.1209V26.7319C22.5735 26.6341 22.5885 26.5361 22.6233 26.4445C22.6582 26.3529 22.7121 26.2698 22.7815 26.2006C22.8509 26.1313 22.9342 26.0777 23.0258 26.0431C23.1175 26.0085 23.2155 25.9938 23.3133 25.9999H35.0133C35.111 25.9939 35.2089 26.0087 35.3004 26.0434C35.3919 26.0781 35.475 26.1318 35.5443 26.201C35.6135 26.2702 35.6672 26.3533 35.7018 26.4448C35.7365 26.5364 35.7513 26.6342 35.7453 26.7319V31.1199C35.748 31.2161 35.7297 31.3117 35.6918 31.4001C35.6538 31.4885 35.597 31.5676 35.5253 31.6319L34.0633 33.0939C33.9991 33.1655 33.92 33.2223 33.8316 33.2603C33.7432 33.2983 33.6475 33.3166 33.5513 33.3139H32.8203V37.6999H35.0133C35.111 37.6939 35.2089 37.7087 35.3004 37.7434C35.3919 37.7781 35.475 37.8318 35.5443 37.901C35.6135 37.9702 35.6672 38.0533 35.7018 38.1448C35.7365 38.2364 35.7513 38.3342 35.7453 38.4319V45.0139H37.9393V40.6279C37.9425 39.4651 38.4058 38.3508 39.2281 37.5286C40.0503 36.7064 41.1646 36.2431 42.3273 36.2399C42.3305 35.0767 42.7941 33.9622 43.6168 33.1399C44.4394 32.3176 45.5542 31.8545 46.7173 31.8519C47.1048 31.8529 47.476 32.0073 47.75 32.2813C48.0239 32.5552 48.1783 32.9265 48.1793 33.3139H74.5083C74.5094 32.9262 74.6639 32.5547 74.938 32.2806C75.2122 32.0064 75.5837 31.8519 75.9713 31.8509H78.8993C80.062 31.8543 81.176 32.3178 81.998 33.14C82.82 33.9621 83.2832 35.0763 83.2864 36.2389V61.1059C83.2832 62.2685 82.82 63.3826 81.998 64.2048C81.176 65.027 80.062 65.4905 78.8993 65.4939H75.9693C75.5819 65.4926 75.2108 65.3379 74.937 65.0638C74.6633 64.7897 74.5091 64.4183 74.5083 64.0309H69.3873V66.9569H74.5083C74.6482 66.9603 74.7842 67.0033 74.9006 67.0808C75.0171 67.1583 75.1092 67.2672 75.1663 67.3949L77.3603 73.2459C77.4027 73.3532 77.4182 73.4693 77.4055 73.5839C77.3928 73.6986 77.3522 73.8085 77.2873 73.9039C77.136 74.0715 76.9272 74.1761 76.7023 74.1969L22.5813 74.1999ZM23.6073 72.8099H75.6783L73.9993 68.4179H25.2883L23.6073 72.8099ZM54.7633 66.9589H67.9263V64.0309H54.7623L54.7633 66.9589ZM75.9723 64.0299H78.8993C79.6751 64.0272 80.4182 63.7175 80.9661 63.1684C81.5141 62.6193 81.8223 61.8756 81.8233 61.0999V36.2379C81.821 35.463 81.5122 34.7206 80.9644 34.1726C80.4166 33.6246 79.6742 33.3155 78.8993 33.3129H75.9723V64.0299ZM43.7913 36.2379V61.0999C43.7932 61.8753 44.1021 62.6185 44.6504 63.1668C45.1987 63.7152 45.9419 64.024 46.7173 64.0259V33.3129C45.9421 33.315 45.1993 33.6238 44.651 34.1719C44.1028 34.7199 43.7937 35.4627 43.7913 36.2379ZM48.1813 62.5669H74.5083V34.7749H48.1803L48.1813 62.5669ZM39.3993 40.6269V56.7159C39.4012 57.491 39.7098 58.2339 40.2577 58.7821C40.8056 59.3304 41.5482 59.6395 42.3233 59.6419V37.6999C41.5481 37.7025 40.8055 38.0118 40.2576 38.5603C39.7098 39.1087 39.4012 39.8517 39.3993 40.6269ZM22.5783 40.9199V56.4249L24.3373 58.1799H34.2833V39.1649H24.3373L22.5783 40.9199ZM35.7423 50.8669H37.9373V46.4779H35.7463L35.7423 50.8669ZM17.4583 50.8669H21.1193V46.4779H17.4613L17.4583 50.8669ZM26.9693 37.6999H31.3573V33.3139H26.9693V37.6999ZM24.0433 30.8269L25.0683 31.8509H33.2583L34.2833 30.8259V27.4629H24.0433V30.8269ZM53.2993 56.4869C52.7175 56.4869 52.1594 56.2557 51.748 55.8443C51.3365 55.4328 51.1053 54.8748 51.1053 54.2929C51.1053 53.711 51.3365 53.1529 51.748 52.7415C52.1594 52.33 52.7175 52.0989 53.2993 52.0989H69.3893C69.9712 52.0989 70.5293 52.33 70.9407 52.7415C71.3522 53.1529 71.5833 53.711 71.5833 54.2929C71.5833 54.8748 71.3522 55.4328 70.9407 55.8443C70.5293 56.2557 69.9712 56.4869 69.3893 56.4869H53.2993ZM52.5693 54.2919C52.5634 54.3894 52.5782 54.4871 52.6127 54.5784C52.6473 54.6698 52.7008 54.7528 52.7698 54.822C52.8388 54.8912 52.9216 54.9449 53.0129 54.9797C53.1042 55.0145 53.2018 55.0296 53.2993 55.0239H69.3893C69.5834 55.0239 69.7694 54.9468 69.9066 54.8096C70.0438 54.6725 70.1208 54.4864 70.1208 54.2924C70.1208 54.0984 70.0438 53.9123 69.9066 53.7751C69.7694 53.638 69.5834 53.5609 69.3893 53.5609H53.2993C53.2017 53.5549 53.104 53.5697 53.0125 53.6043C52.9211 53.6389 52.838 53.6926 52.7688 53.7617C52.6996 53.8307 52.6459 53.9137 52.6112 54.0051C52.5764 54.0965 52.5615 54.1943 52.5673 54.2919H52.5693ZM53.2993 44.0919C52.7175 44.0919 52.1594 43.8607 51.748 43.4493C51.3365 43.0378 51.1053 42.4798 51.1053 41.8979C51.1053 41.316 51.3365 40.758 51.748 40.3465C52.1594 39.935 52.7175 39.7039 53.2993 39.7039H69.3893C69.9712 39.7039 70.5293 39.935 70.9407 40.3465C71.3522 40.758 71.5833 41.316 71.5833 41.8979C71.5833 42.4798 71.3522 43.0378 70.9407 43.4493C70.5293 43.8607 69.9712 44.0919 69.3893 44.0919H53.2993ZM52.5693 41.8969C52.5634 41.9944 52.5782 42.0921 52.6127 42.1834C52.6473 42.2748 52.7008 42.3578 52.7698 42.427C52.8388 42.4962 52.9216 42.5499 53.0129 42.5847C53.1042 42.6195 53.2018 42.6346 53.2993 42.6289H69.3893C69.5835 42.6289 69.7697 42.5518 69.9069 42.4145C70.0442 42.2772 70.1213 42.091 70.1213 41.8969C70.1213 41.7027 70.0442 41.5166 69.9069 41.3793C69.7697 41.242 69.5835 41.1649 69.3893 41.1649H53.2993C53.2014 41.159 53.1034 41.174 53.0117 41.2089C52.92 41.2438 52.8368 41.2978 52.7676 41.3673C52.6984 41.4368 52.6447 41.5203 52.6102 41.6121C52.5757 41.7039 52.5611 41.802 52.5673 41.8999L52.5693 41.8969Z" stroke="black" stroke-width="0.6" mask="url(#path-1-outside-1_1544_1370)"/>
</g>
<defs>
<clipPath id="clip0_1544_1370">
<rect width="67.284" height="48.197" fill="white" transform="translate(16 26)"/>
</clipPath>
</defs>
</svg>
