<svg width="100" height="100" viewBox="0 0 100 100" fill="none" xmlns="http://www.w3.org/2000/svg">
<g clip-path="url(#clip0_1543_1230)">
<path d="M66.127 15H34.337C32.9221 15.0019 31.5657 15.5647 30.5652 16.5652C29.5647 17.5657 29.0019 18.9221 29 20.337V68.366C29.0026 69.7804 29.5659 71.136 30.5663 72.1358C31.5667 73.1357 32.9226 73.6982 34.337 73.7H38.991V76.625C38.9921 77.463 39.3254 78.2664 39.918 78.859C40.5106 79.4516 41.314 79.7849 42.152 79.786H43.366V84.015C43.3663 84.276 43.47 84.5262 43.6544 84.7109C43.8389 84.8955 44.089 84.9995 44.35 85H47.45C47.7108 84.9995 47.9608 84.8956 48.1452 84.7112C48.3296 84.5268 48.4335 84.2768 48.434 84.016V79.789H52.034V84.016C52.0345 84.2768 52.1384 84.5268 52.3228 84.7112C52.5072 84.8956 52.7572 84.9995 53.018 85H56.118C56.3788 84.9995 56.6288 84.8956 56.8132 84.7112C56.9976 84.5268 57.1015 84.2768 57.102 84.016V79.787H58.302C59.14 79.7859 59.9434 79.4526 60.536 78.86C61.1286 78.2674 61.4619 77.464 61.463 76.626V73.7H66.127C67.5419 73.6981 68.8983 73.1353 69.8988 72.1348C70.8993 71.1343 71.4621 69.7779 71.464 68.363V20.338C71.4624 18.9229 70.8996 17.5663 69.8991 16.5656C68.8986 15.5649 67.5421 15.0019 66.127 15ZM55.127 83.03H53.989V79.785H55.123L55.127 83.03ZM46.458 79.785V83.03H45.319V79.785H46.458ZM59.5 76.624C59.4999 76.7812 59.4687 76.9369 59.4083 77.082C59.3478 77.2271 59.2593 77.3589 59.1478 77.4698C59.0363 77.5806 58.904 77.6683 58.7585 77.7279C58.613 77.7875 58.4572 77.8178 58.3 77.817H42.141C41.8247 77.8167 41.5214 77.691 41.2977 77.4673C41.074 77.2436 40.9483 76.9403 40.948 76.624V73.7H59.493L59.5 76.624ZM54.6 42.05C54.6088 42.6294 54.5022 43.2047 54.2866 43.7425C54.0709 44.2803 53.7505 44.7699 53.3438 45.1827C52.9372 45.5955 52.4526 45.9233 51.9181 46.1471C51.3836 46.3709 50.8099 46.4861 50.2305 46.4861C49.6511 46.4861 49.0774 46.3709 48.5429 46.1471C48.0084 45.9233 47.5238 45.5955 47.1172 45.1827C46.7105 44.7699 46.3901 44.2803 46.1744 43.7425C45.9588 43.2047 45.8522 42.6294 45.861 42.05V26.317H54.6V42.05ZM50.313 48.468C51.9941 48.4469 53.5979 47.7589 54.7717 46.5553C55.9455 45.3517 56.5931 43.7311 56.572 42.05V26.317H69.5V62.4H30.957V26.317H43.886V42.05C43.886 42.1033 43.886 42.1563 43.886 42.209C43.9071 43.8901 44.5951 45.4939 45.7987 46.6677C47.0023 47.8415 48.6229 48.4891 50.304 48.468M69.491 64.368V68.368C69.4902 69.2613 69.135 70.1177 68.5034 70.7494C67.8717 71.381 67.0153 71.7362 66.122 71.737H34.323C33.4297 71.7362 32.5733 71.381 31.9416 70.7494C31.31 70.1177 30.9548 69.2613 30.954 68.368V64.368H69.491ZM69.491 20.341V24.341H30.959V20.341C30.959 19.4472 31.3139 18.59 31.9456 17.9577C32.5773 17.3254 33.4342 16.9698 34.328 16.969H66.128C67.0218 16.969 67.879 17.3239 68.5113 17.9556C69.1436 18.5873 69.4992 19.4442 69.5 20.338" fill="#121212"/>
</g>
<defs>
<clipPath id="clip0_1543_1230">
<rect width="42.464" height="70.002" fill="white" transform="translate(29 15)"/>
</clipPath>
</defs>
</svg>
